<?xml version="1.0" encoding="UTF-8" standalone="no"?>
<svg
   xmlns:osb="http://www.openswatchbook.org/uri/2009/osb"
   xmlns:dc="http://purl.org/dc/elements/1.1/"
   xmlns:cc="http://creativecommons.org/ns#"
   xmlns:rdf="http://www.w3.org/1999/02/22-rdf-syntax-ns#"
   xmlns:svg="http://www.w3.org/2000/svg"
   xmlns="http://www.w3.org/2000/svg"
   xmlns:xlink="http://www.w3.org/1999/xlink"
   xmlns:sodipodi="http://sodipodi.sourceforge.net/DTD/sodipodi-0.dtd"
   xmlns:inkscape="http://www.inkscape.org/namespaces/inkscape"
   version="1.1"
   x="0px"
   y="0px"
   viewBox="0 0 1024 250"
   xml:space="preserve"
   id="svg3928"
   sodipodi:docname="path-of-child-logo-horizontal.svg"
   width="1024"
   height="250"
   inkscape:version="0.92.3 (3ce5693, 2018-03-11)"><metadata
     id="metadata3934"><rdf:RDF><cc:Work
         rdf:about=""><dc:format>image/svg+xml</dc:format><dc:type
           rdf:resource="http://purl.org/dc/dcmitype/StillImage" /><dc:title /></cc:Work></rdf:RDF></metadata><defs
     id="defs3932"><linearGradient
       inkscape:collect="always"
       id="linearGradient6245"><stop
         style="stop-color:#000000;stop-opacity:1;"
         offset="0"
         id="stop6241" /><stop
         style="stop-color:#000000;stop-opacity:0;"
         offset="1"
         id="stop6243" /></linearGradient><linearGradient
       id="linearGradient6237"
       osb:paint="solid"><stop
         style="stop-color:#007f00;stop-opacity:1;"
         offset="0"
         id="stop6235" /></linearGradient><linearGradient
       inkscape:collect="always"
       xlink:href="#linearGradient6237"
       id="linearGradient6239"
       x1="431.27808"
       y1="364.13226"
       x2="469.35306"
       y2="364.13226"
       gradientUnits="userSpaceOnUse" /><linearGradient
       inkscape:collect="always"
       xlink:href="#linearGradient6245"
       id="linearGradient6247"
       x1="431.27808"
       y1="364.13226"
       x2="469.35306"
       y2="364.13226"
       gradientUnits="userSpaceOnUse" /></defs><sodipodi:namedview
     pagecolor="#ffffff"
     bordercolor="#666666"
     borderopacity="1"
     objecttolerance="10"
     gridtolerance="10"
     guidetolerance="10"
     inkscape:pageopacity="0"
     inkscape:pageshadow="2"
     inkscape:window-width="2192"
     inkscape:window-height="1090"
     id="namedview3930"
     showgrid="false"
     units="px"
     inkscape:zoom="0.5"
     inkscape:cx="223.44531"
     inkscape:cy="156.30786"
     inkscape:window-x="0"
     inkscape:window-y="34"
     inkscape:window-maximized="1"
     inkscape:current-layer="g3920" /><g
     transform="matrix(15.385114,0,0,16.700813,-6649.7684,-5977.8217)"
     id="g3922"><g
       id="g3920">
<flowRoot
   xml:space="preserve"
   id="flowRoot4627"
   style="font-style:normal;font-variant:normal;font-weight:normal;font-stretch:normal;font-size:40px;line-height:1.25;font-family:Signika;-inkscape-font-specification:Signika;letter-spacing:0px;word-spacing:0px;fill:#000000;fill-opacity:1;stroke:none"
   transform="matrix(0.06499789,0,0,0.05987732,432.22094,311.59092)"><flowRegion
     id="flowRegion4629"><rect
       id="rect4631"
       width="10"
       height="68"
       x="813"
       y="573" /></flowRegion><flowPara
     id="flowPara4633" /></flowRoot><path
   d="m 448.60942,368.57025 c -1.06921,1.28158 -2.96914,2.02745 -4.73568,1.8222 -0.88654,-0.0833 -1.72355,-0.40974 -2.42035,-0.89589 -0.69038,-0.47386 -1.25149,-1.22206 -1.45153,-2.04912 -0.20162,-0.83257 -0.0892,-1.74723 0.32009,-2.55633 0.42117,-0.80399 1.10581,-1.49894 1.94905,-1.91758 0.83439,-0.4303 1.79089,-0.57956 2.65414,-0.4486 0.86315,0.13321 1.63056,0.54841 2.10932,1.14869 -1.28693,-0.90833 -3.10783,-0.87772 -4.38591,-0.0687 -1.29744,0.78888 -1.97765,2.28817 -1.63244,3.55757 0.0727,0.318 0.20847,0.61745 0.39089,0.88895 0.17976,0.27021 0.42579,0.49918 0.70074,0.72399 0.54401,0.43897 1.22352,0.72903 1.95576,0.88111 1.4734,0.2938 3.17768,-0.0866 4.54592,-1.08631 z"
   id="path3914-3"
   inkscape:connector-curvature="0"
   style="fill:#9cbbff;fill-opacity:1;stroke-width:0.41094798" /><path
   d="m 440.44916,362.271 c 1.06921,-1.28158 2.96914,-2.02745 4.73507,-1.82218 0.88684,0.0835 1.72326,0.40947 2.42098,0.89531 0.69068,0.47412 1.25179,1.22233 1.45183,2.04938 0.20161,0.83258 0.0889,1.74696 -0.3198,2.55661 -0.42055,0.8034 -1.10581,1.49893 -1.94906,1.91757 -0.83376,0.42972 -1.79025,0.57899 -2.65382,0.44831 -0.86315,-0.1332 -1.63085,-0.54868 -2.10932,-1.14869 1.28694,0.90833 3.10754,0.87746 4.38683,0.0684 1.29653,-0.78857 1.97615,-2.2884 1.63122,-3.55752 -0.0727,-0.318 -0.20812,-0.61831 -0.39088,-0.88896 -0.18005,-0.27047 -0.42578,-0.49917 -0.70136,-0.7234 -0.54339,-0.43956 -1.22353,-0.72904 -1.95577,-0.88112 -1.47435,-0.29292 -3.178,0.0869 -4.54592,1.08632 z"
   id="path3916-6"
   inkscape:connector-curvature="0"
   style="fill:#ffabff;fill-opacity:1;stroke-width:0.41094798" /><text
   xml:space="preserve"
   style="font-style:normal;font-variant:normal;font-weight:normal;font-stretch:normal;font-size:5.04696798px;line-height:1.25;font-family:Sign;-inkscape-font-specification:Sign;letter-spacing:0px;word-spacing:0px;fill:#6545cc;fill-opacity:1;stroke:none;stroke-width:0.06138624;stroke-miterlimit:4;stroke-dasharray:none"
   x="436.86896"
   y="379.96167"
   id="text3970-7"
   transform="scale(1.0347482,0.96641869)"><tspan
     sodipodi:role="line"
     id="tspan3968-5"
     x="436.86896"
     y="379.96167"
     style="font-style:normal;font-variant:normal;font-weight:normal;font-stretch:normal;font-family:Sawasdee;-inkscape-font-specification:Sawasdee;fill:#6545cc;fill-opacity:1;stroke:none;stroke-width:0.06138624;stroke-miterlimit:4;stroke-dasharray:none;paint-order:stroke fill markers">PATH OF CHILD</tspan></text>
</g></g></svg>