<?xml version="1.0" encoding="UTF-8" standalone="no"?>
<svg
   xmlns:osb="http://www.openswatchbook.org/uri/2009/osb"
   xmlns:dc="http://purl.org/dc/elements/1.1/"
   xmlns:cc="http://creativecommons.org/ns#"
   xmlns:rdf="http://www.w3.org/1999/02/22-rdf-syntax-ns#"
   xmlns:svg="http://www.w3.org/2000/svg"
   xmlns="http://www.w3.org/2000/svg"
   xmlns:xlink="http://www.w3.org/1999/xlink"
   xmlns:sodipodi="http://sodipodi.sourceforge.net/DTD/sodipodi-0.dtd"
   xmlns:inkscape="http://www.inkscape.org/namespaces/inkscape"
   version="1.1"
   x="0px"
   y="0px"
   viewBox="0 0 1024 1024"
   xml:space="preserve"
   id="svg3928"
   sodipodi:docname="path-of-child-logo.svg"
   width="1024"
   height="1024"
   inkscape:version="0.92.3 (3ce5693, 2018-03-11)"><metadata
     id="metadata3934"><rdf:RDF><cc:Work
         rdf:about=""><dc:format>image/svg+xml</dc:format><dc:type
           rdf:resource="http://purl.org/dc/dcmitype/StillImage" /><dc:title /></cc:Work></rdf:RDF></metadata><defs
     id="defs3932"><linearGradient
       inkscape:collect="always"
       id="linearGradient6245"><stop
         style="stop-color:#000000;stop-opacity:1;"
         offset="0"
         id="stop6241" /><stop
         style="stop-color:#000000;stop-opacity:0;"
         offset="1"
         id="stop6243" /></linearGradient><linearGradient
       id="linearGradient6237"
       osb:paint="solid"><stop
         style="stop-color:#007f00;stop-opacity:1;"
         offset="0"
         id="stop6235" /></linearGradient><linearGradient
       inkscape:collect="always"
       xlink:href="#linearGradient6237"
       id="linearGradient6239"
       x1="431.27808"
       y1="364.13227"
       x2="469.35306"
       y2="364.13227"
       gradientUnits="userSpaceOnUse" /><linearGradient
       inkscape:collect="always"
       xlink:href="#linearGradient6245"
       id="linearGradient6247"
       x1="431.27808"
       y1="364.13227"
       x2="469.35306"
       y2="364.13227"
       gradientUnits="userSpaceOnUse" /></defs><sodipodi:namedview
     pagecolor="#ffffff"
     bordercolor="#666666"
     borderopacity="1"
     objecttolerance="10"
     gridtolerance="10"
     guidetolerance="10"
     inkscape:pageopacity="0"
     inkscape:pageshadow="2"
     inkscape:window-width="2192"
     inkscape:window-height="1090"
     id="namedview3930"
     showgrid="false"
     units="px"
     inkscape:zoom="1"
     inkscape:cx="457.60567"
     inkscape:cy="603.5013"
     inkscape:window-x="0"
     inkscape:window-y="34"
     inkscape:window-maximized="1"
     inkscape:current-layer="g3920" /><g
     transform="matrix(15.385114,0,0,16.700813,-6649.7684,-5203.8217)"
     id="g3922"><g
       id="g3920"><path
   d="m 475.42811,342.44215 c -2.60181,3.1186 -7.22509,4.93359 -11.52378,4.43414 -2.15732,-0.20264 -4.19409,-0.99707 -5.88967,-2.18007 -1.67999,-1.15307 -3.04539,-2.97376 -3.53217,-4.98631 -0.49061,-2.02598 -0.21708,-4.2517 0.77891,-6.22058 1.02488,-1.95642 2.69087,-3.6475 4.74283,-4.66623 2.0304,-1.04708 4.35793,-1.41031 6.45857,-1.09161 2.10039,0.32413 3.96781,1.3345 5.13281,2.79522 -3.13162,-2.21034 -7.56259,-2.13586 -10.67266,-0.16713 -3.1572,1.91965 -4.81241,5.56803 -3.97237,8.65697 0.17682,0.77382 0.50728,1.50252 0.95119,2.16318 0.43742,0.65752 1.0361,1.21469 1.70516,1.76174 1.32381,1.0682 2.97732,1.77404 4.75915,2.14411 3.58538,0.71492 7.73256,-0.21072 11.06203,-2.64343 z"
   id="path3914"
   inkscape:connector-curvature="0"
   style="fill:#9cbbff;fill-opacity:1" /><path
   d="m 455.57096,327.11356 c 2.60182,-3.1186 7.22509,-4.93359 11.5223,-4.43408 2.15804,0.20328 4.19339,0.99641 5.89122,2.17865 1.68069,1.15372 3.04609,2.97441 3.53287,4.98696 0.49061,2.02598 0.21637,4.25105 -0.7782,6.22124 -1.02335,1.955 -2.69087,3.64749 -4.74283,4.66622 -2.02887,1.04566 -4.3564,1.4089 -6.4578,1.09091 -2.10039,-0.32414 -3.96852,-1.33516 -5.13282,-2.79523 3.13163,2.21034 7.56189,2.13521 10.67491,0.16637 3.15496,-1.91889 4.80875,-5.56857 3.96941,-8.65685 -0.17681,-0.77383 -0.50645,-1.50459 -0.95118,-2.16319 -0.43813,-0.65817 -1.0361,-1.21469 -1.70669,-1.76032 -1.32228,-1.06962 -2.97733,-1.77404 -4.75916,-2.14412 -3.58768,-0.71279 -7.73333,0.21144 -11.06203,2.64344 z"
   id="path3916"
   inkscape:connector-curvature="0"
   style="fill:#ffabff;fill-opacity:1" /><text
   xml:space="preserve"
   style="font-style:normal;font-variant:normal;font-weight:normal;font-stretch:normal;font-size:5.12908983px;line-height:1.25;font-family:Sign;-inkscape-font-specification:Sign;letter-spacing:0px;word-spacing:0px;fill:#6545cc;fill-opacity:1;stroke:none;stroke-width:0.06238509;stroke-miterlimit:4;stroke-dasharray:none"
   x="431.2623"
   y="365.93738"
   id="text3970"
   transform="scale(1.0347482,0.96641869)"><tspan
     sodipodi:role="line"
     id="tspan3968"
     x="431.2623"
     y="365.93738"
     style="font-style:normal;font-variant:normal;font-weight:normal;font-stretch:normal;font-family:Sawasdee;-inkscape-font-specification:Sawasdee;fill:#6545cc;fill-opacity:1;stroke:none;stroke-width:0.06238509;stroke-miterlimit:4;stroke-dasharray:none;paint-order:stroke fill markers">PATH OF CHILD</tspan></text>

<flowRoot
   xml:space="preserve"
   id="flowRoot4627"
   style="fill:black;fill-opacity:1;stroke:none;font-family:Signika;font-style:normal;font-weight:normal;font-size:40px;line-height:1.25;letter-spacing:0px;word-spacing:0px;-inkscape-font-specification:Signika;font-stretch:normal;font-variant:normal"><flowRegion
     id="flowRegion4629"><rect
       id="rect4631"
       width="10"
       height="68"
       x="813"
       y="573" /></flowRegion><flowPara
     id="flowPara4633" /></flowRoot></g></g></svg>