<?xml version="1.0" encoding="UTF-8" standalone="no"?>
<svg
   xmlns:osb="http://www.openswatchbook.org/uri/2009/osb"
   xmlns:dc="http://purl.org/dc/elements/1.1/"
   xmlns:cc="http://creativecommons.org/ns#"
   xmlns:rdf="http://www.w3.org/1999/02/22-rdf-syntax-ns#"
   xmlns:svg="http://www.w3.org/2000/svg"
   xmlns="http://www.w3.org/2000/svg"
   xmlns:xlink="http://www.w3.org/1999/xlink"
   xmlns:sodipodi="http://sodipodi.sourceforge.net/DTD/sodipodi-0.dtd"
   xmlns:inkscape="http://www.inkscape.org/namespaces/inkscape"
   version="1.1"
   x="0px"
   y="0px"
   viewBox="0 0 1024 1024"
   xml:space="preserve"
   id="svg3928"
   sodipodi:docname="path-of-child-logo-only.svg"
   width="1024"
   height="1024"
   inkscape:version="0.92.2 (30a58d1, 2017-08-07)"><metadata
     id="metadata3934"><rdf:RDF><cc:Work
         rdf:about=""><dc:format>image/svg+xml</dc:format><dc:type
           rdf:resource="http://purl.org/dc/dcmitype/StillImage" /><dc:title></dc:title></cc:Work></rdf:RDF></metadata><defs
     id="defs3932"><linearGradient
       inkscape:collect="always"
       id="linearGradient6245"><stop
         style="stop-color:#000000;stop-opacity:1;"
         offset="0"
         id="stop6241" /><stop
         style="stop-color:#000000;stop-opacity:0;"
         offset="1"
         id="stop6243" /></linearGradient><linearGradient
       id="linearGradient6237"
       osb:paint="solid"><stop
         style="stop-color:#007f00;stop-opacity:1;"
         offset="0"
         id="stop6235" /></linearGradient><linearGradient
       inkscape:collect="always"
       xlink:href="#linearGradient6237"
       id="linearGradient6239"
       x1="431.27808"
       y1="364.13226"
       x2="469.35306"
       y2="364.13226"
       gradientUnits="userSpaceOnUse" /><linearGradient
       inkscape:collect="always"
       xlink:href="#linearGradient6245"
       id="linearGradient6247"
       x1="431.27808"
       y1="364.13226"
       x2="469.35306"
       y2="364.13226"
       gradientUnits="userSpaceOnUse" /></defs><sodipodi:namedview
     pagecolor="#ffffff"
     bordercolor="#666666"
     borderopacity="1"
     objecttolerance="10"
     gridtolerance="10"
     guidetolerance="10"
     inkscape:pageopacity="0"
     inkscape:pageshadow="2"
     inkscape:window-width="1920"
     inkscape:window-height="937"
     id="namedview3930"
     showgrid="false"
     units="px"
     inkscape:zoom="0.5"
     inkscape:cx="557.44531"
     inkscape:cy="556.30786"
     inkscape:window-x="0"
     inkscape:window-y="34"
     inkscape:window-maximized="1"
     inkscape:current-layer="g3920" /><g
     transform="matrix(15.385114,0,0,16.700813,-6649.7684,-5203.8217)"
     id="g3922"><g
       id="g3920"><path
         d="m 485.0559,357.34473 c -5.12486,6.14281 -14.2315,9.71788 -22.6988,8.7341 -4.24936,-0.39908 -8.26128,-1.96397 -11.60113,-4.29419 -3.30913,-2.27125 -5.99861,-5.85752 -6.95741,-9.8217 -0.9664,-3.99067 -0.42763,-8.37472 1.53424,-12.25294 2.01872,-3.8536 5.30029,-7.18459 9.34211,-9.19121 3.99937,-2.06248 8.58399,-2.77794 12.7217,-2.15021 4.13722,0.63848 7.81553,2.62861 10.11028,5.50585 -6.16845,-4.35378 -14.89632,-4.20707 -21.02236,-0.32935 -6.21881,3.78122 -9.47918,10.96753 -7.82451,17.05194 0.34822,1.52424 0.99921,2.95956 1.87361,4.26093 0.8616,1.29513 2.04082,2.39261 3.35872,3.47015 2.60756,2.10407 5.86452,3.4944 9.37426,4.22331 7.06225,1.40821 15.23112,-0.41503 21.78929,-5.20685 z"
         id="path3914"
         inkscape:connector-curvature="0"
         style="fill:#3cd9c5;fill-opacity:1;stroke-width:1.96973741" /><path
         d="m 445.94253,327.15142 c 5.12491,-6.14281 14.23155,-9.71789 22.69593,-8.73398 4.25076,0.40031 8.25985,1.96269 11.60413,4.2914 3.31052,2.27252 6,5.85879 6.95885,9.82301 0.96635,3.99063 0.42618,8.37341 -1.53286,12.25417 -2.01572,3.85085 -5.30032,7.18464 -9.34214,9.19125 -3.99634,2.05965 -8.58095,2.77516 -12.72015,2.14882 -4.13722,-0.63848 -7.81696,-2.62992 -10.11031,-5.50589 6.16849,4.35378 14.89492,4.2058 21.02674,0.32771 6.21447,-3.7797 9.472,-10.96864 7.81873,-17.05174 -0.34822,-1.52424 -0.99757,-2.96362 -1.87361,-4.26088 -0.86299,-1.29644 -2.04082,-2.39265 -3.36171,-3.46737 -2.60453,-2.1069 -5.86457,-3.49439 -9.3743,-4.22335 -7.0668,-1.40403 -15.23264,0.41646 -21.7893,5.20685 z"
         id="path3916"
         inkscape:connector-curvature="0"
         style="fill:#ce8eef;fill-opacity:1;stroke-width:1.96973741" /><flowRoot
         xml:space="preserve"
         id="flowRoot4627"
         style="font-style:normal;font-variant:normal;font-weight:normal;font-stretch:normal;font-size:40px;line-height:1.25;font-family:Signika;-inkscape-font-specification:Signika;letter-spacing:0px;word-spacing:0px;fill:#000000;fill-opacity:1;stroke:none"
         transform="matrix(0.06499789,0,0,0.05987732,432.22094,311.59092)"><flowRegion
           id="flowRegion4629"><rect
             id="rect4631"
             width="10"
             height="68"
             x="813"
             y="573" /></flowRegion><flowPara
           id="flowPara4633"></flowPara></flowRoot></g></g></svg>