<?xml version="1.0" encoding="UTF-8" standalone="no"?>
<svg
   xmlns:osb="http://www.openswatchbook.org/uri/2009/osb"
   xmlns:dc="http://purl.org/dc/elements/1.1/"
   xmlns:cc="http://creativecommons.org/ns#"
   xmlns:rdf="http://www.w3.org/1999/02/22-rdf-syntax-ns#"
   xmlns:svg="http://www.w3.org/2000/svg"
   xmlns="http://www.w3.org/2000/svg"
   xmlns:xlink="http://www.w3.org/1999/xlink"
   xmlns:sodipodi="http://sodipodi.sourceforge.net/DTD/sodipodi-0.dtd"
   xmlns:inkscape="http://www.inkscape.org/namespaces/inkscape"
   version="1.1"
   x="0px"
   y="0px"
   viewBox="0 0 1024 250"
   xml:space="preserve"
   id="svg3928"
   sodipodi:docname="path-of-child-logo-horizontal.svg"
   width="1024"
   height="250"
   inkscape:version="0.92.2 (30a58d1, 2017-08-07)"><metadata
     id="metadata3934"><rdf:RDF><cc:Work
         rdf:about=""><dc:format>image/svg+xml</dc:format><dc:type
           rdf:resource="http://purl.org/dc/dcmitype/StillImage" /><dc:title></dc:title></cc:Work></rdf:RDF></metadata><defs
     id="defs3932"><linearGradient
       inkscape:collect="always"
       id="linearGradient6245"><stop
         style="stop-color:#000000;stop-opacity:1;"
         offset="0"
         id="stop6241" /><stop
         style="stop-color:#000000;stop-opacity:0;"
         offset="1"
         id="stop6243" /></linearGradient><linearGradient
       id="linearGradient6237"
       osb:paint="solid"><stop
         style="stop-color:#007f00;stop-opacity:1;"
         offset="0"
         id="stop6235" /></linearGradient><linearGradient
       inkscape:collect="always"
       xlink:href="#linearGradient6237"
       id="linearGradient6239"
       x1="431.27808"
       y1="364.13226"
       x2="469.35306"
       y2="364.13226"
       gradientUnits="userSpaceOnUse" /><linearGradient
       inkscape:collect="always"
       xlink:href="#linearGradient6245"
       id="linearGradient6247"
       x1="431.27808"
       y1="364.13226"
       x2="469.35306"
       y2="364.13226"
       gradientUnits="userSpaceOnUse" /></defs><sodipodi:namedview
     pagecolor="#ffffff"
     bordercolor="#666666"
     borderopacity="1"
     objecttolerance="10"
     gridtolerance="10"
     guidetolerance="10"
     inkscape:pageopacity="0"
     inkscape:pageshadow="2"
     inkscape:window-width="1920"
     inkscape:window-height="937"
     id="namedview3930"
     showgrid="false"
     units="px"
     inkscape:zoom="0.5"
     inkscape:cx="557.44531"
     inkscape:cy="236.30786"
     inkscape:window-x="0"
     inkscape:window-y="34"
     inkscape:window-maximized="1"
     inkscape:current-layer="g3920" /><g
     transform="matrix(15.385114,0,0,16.700813,-6649.7684,-5977.8217)"
     id="g3922"><g
       id="g3920"><path
         d="m 448.63416,369.10139 c -1.24951,1.4977 -3.46983,2.36935 -5.53427,2.12949 -1.03605,-0.0973 -2.01421,-0.47884 -2.82851,-1.04698 -0.80681,-0.55376 -1.46254,-1.42814 -1.69631,-2.39466 -0.23562,-0.97298 -0.10426,-2.04187 0.37407,-2.98743 0.49219,-0.93956 1.29228,-1.7517 2.27773,-2.24094 0.9751,-0.50286 2.09289,-0.6773 3.10172,-0.52425 1.00871,0.15567 1.90553,0.64089 2.46502,1.3424 -1.50395,-1.06151 -3.63192,-1.02574 -5.12553,-0.0803 -1.51623,0.92191 -2.31115,2.67403 -1.90772,4.15749 0.0849,0.37163 0.24362,0.72158 0.45681,1.03887 0.21007,0.31577 0.49758,0.58335 0.8189,0.84607 0.63576,0.513 1.42985,0.85198 2.28557,1.0297 1.72187,0.34334 3.71355,-0.10119 5.31252,-1.2695 z"
         id="path3914"
         inkscape:connector-curvature="0"
         style="fill:#3cd9c5;fill-opacity:1;stroke-width:0.48024821" /><path
         d="m 439.0978,361.73986 c 1.24952,-1.4977 3.46984,-2.36935 5.53357,-2.12946 1.03639,0.0976 2.01386,0.47853 2.82924,1.0463 0.80715,0.55407 1.46288,1.42845 1.69666,2.39498 0.23561,0.97297 0.10391,2.04155 -0.37373,2.98773 -0.49146,0.93889 -1.29229,1.75171 -2.27774,2.24095 -0.97436,0.50217 -2.09215,0.67662 -3.10134,0.52391 -1.00871,-0.15567 -1.90588,-0.64121 -2.46503,-1.34241 1.50396,1.06151 3.63158,1.02543 5.1266,0.0799 1.51517,-0.92154 2.3094,-2.6743 1.90631,-4.15744 -0.0849,-0.37163 -0.24322,-0.72257 -0.45681,-1.03886 -0.21041,-0.31609 -0.49758,-0.58336 -0.81963,-0.84539 -0.63502,-0.51369 -1.42986,-0.85198 -2.28558,-1.02971 -1.72298,-0.34232 -3.71392,0.10154 -5.31252,1.2695 z"
         id="path3916"
         inkscape:connector-curvature="0"
         style="fill:#ce8eef;fill-opacity:1;stroke-width:0.48024821" /><text
         xml:space="preserve"
         style="font-style:normal;font-variant:normal;font-weight:normal;font-stretch:normal;font-size:6.17774343px;line-height:1.25;font-family:Sign;-inkscape-font-specification:Sign;letter-spacing:0px;word-spacing:0px;fill:#1ea683;fill-opacity:1;stroke:none;stroke-width:0.07513986;stroke-miterlimit:4;stroke-dasharray:none"
         x="436.90268"
         y="380.35196"
         id="text3970"
         transform="scale(1.0347482,0.96641869)"><tspan
           sodipodi:role="line"
           id="tspan3968"
           x="436.90268"
           y="380.35196"
           style="font-style:normal;font-variant:normal;font-weight:normal;font-stretch:normal;font-family:Signika;-inkscape-font-specification:Signika;fill:#85b4da;fill-opacity:1;stroke:none;stroke-width:0.07513986;stroke-miterlimit:4;stroke-dasharray:none;paint-order:stroke fill markers">PATH OF CHILD</tspan></text>
<flowRoot
         xml:space="preserve"
         id="flowRoot4627"
         style="font-style:normal;font-variant:normal;font-weight:normal;font-stretch:normal;font-size:40px;line-height:1.25;font-family:Signika;-inkscape-font-specification:Signika;letter-spacing:0px;word-spacing:0px;fill:#000000;fill-opacity:1;stroke:none"
         transform="matrix(0.06499789,0,0,0.05987732,432.22094,311.59092)"><flowRegion
           id="flowRegion4629"><rect
             id="rect4631"
             width="10"
             height="68"
             x="813"
             y="573" /></flowRegion><flowPara
           id="flowPara4633"></flowPara></flowRoot></g></g></svg>