<?xml version="1.0" standalone="no"?>
<!DOCTYPE svg PUBLIC "-//W3C//DTD SVG 20010904//EN"
 "http://www.w3.org/TR/2001/REC-SVG-20010904/DTD/svg10.dtd">
<svg version="1.0" xmlns="http://www.w3.org/2000/svg"
 width="1024.000000pt" height="1024.000000pt" viewBox="0 0 1024.000000 1024.000000"
 preserveAspectRatio="xMidYMid meet">
<metadata>
Created by potrace 1.11, written by Peter Selinger 2001-2013
</metadata>
<g transform="translate(0.000000,1024.000000) scale(0.100000,-0.100000)"
fill="#000000" stroke="none">
<path d="M4870 9100 c-751 -70 -1466 -344 -2053 -787 -205 -156 -433 -368
-576 -538 -89 -105 -95 -117 -36 -72 102 77 394 267 510 332 491 274 996 442
1550 516 223 30 676 33 879 6 600 -80 1152 -295 1581 -617 119 -89 158 -122
294 -249 414 -386 629 -795 728 -1386 25 -154 25 -520 -1 -690 -69 -455 -265
-918 -548 -1291 -281 -371 -637 -661 -1062 -865 -277 -132 -549 -212 -871
-255 -159 -21 -501 -24 -660 -5 -427 49 -830 192 -1169 415 -69 46 -126 81
-126 78 0 -2 31 -41 69 -86 333 -392 834 -674 1388 -781 221 -43 561 -58 794
-35 389 39 747 142 1099 319 480 240 871 570 1197 1008 368 494 576 1026 645
1648 17 158 14 512 -6 670 -47 364 -136 654 -296 962 -289 557 -742 994 -1365
1314 -394 203 -783 321 -1238 375 -155 18 -591 26 -727 14z"/>
<path d="M4870 7463 c-695 -24 -1373 -286 -1925 -744 -569 -471 -994 -1159
-1145 -1856 -133 -616 -91 -1229 122 -1768 91 -231 265 -526 432 -735 441
-550 1195 -997 1941 -1150 244 -50 534 -80 780 -80 998 0 2025 425 2734 1131
95 95 281 303 281 314 0 3 -42 -26 -93 -64 -612 -454 -1315 -736 -2067 -828
-200 -24 -650 -24 -835 1 -544 73 -1039 253 -1455 529 -304 203 -609 495 -777
747 -299 447 -437 1021 -378 1570 98 921 682 1764 1526 2204 152 79 235 115
402 172 810 275 1712 169 2394 -282 70 -46 128 -82 129 -81 6 6 -168 197 -242
266 -400 373 -992 620 -1549 647 -175 8 -206 9 -275 7z"/>
</g>
</svg>
