<?xml version="1.0" encoding="UTF-8" standalone="no"?>
<!-- Generator: Adobe Illustrator 17.1.0, SVG Export Plug-In . SVG Version: 6.00 Build 0)  -->

<svg
   xmlns:dc="http://purl.org/dc/elements/1.1/"
   xmlns:cc="http://creativecommons.org/ns#"
   xmlns:rdf="http://www.w3.org/1999/02/22-rdf-syntax-ns#"
   xmlns:svg="http://www.w3.org/2000/svg"
   xmlns="http://www.w3.org/2000/svg"
   xmlns:sodipodi="http://sodipodi.sourceforge.net/DTD/sodipodi-0.dtd"
   xmlns:inkscape="http://www.inkscape.org/namespaces/inkscape"
   version="1.1"
   id="Capa_1"
   x="0px"
   y="0px"
   viewBox="0 0 442.219 442.219"
   style="enable-background:new 0 0 442.219 442.219;"
   xml:space="preserve"
   sodipodi:docname="segment-path.svg"
   inkscape:version="0.92.3 (3ce5693, 2018-03-11)"><metadata
   id="metadata927"><rdf:RDF><cc:Work
       rdf:about=""><dc:format>image/svg+xml</dc:format><dc:type
         rdf:resource="http://purl.org/dc/dcmitype/StillImage" /></cc:Work></rdf:RDF></metadata><defs
   id="defs925" /><sodipodi:namedview
   pagecolor="#ffffff"
   bordercolor="#666666"
   borderopacity="1"
   objecttolerance="10"
   gridtolerance="10"
   guidetolerance="10"
   inkscape:pageopacity="0"
   inkscape:pageshadow="2"
   inkscape:window-width="2192"
   inkscape:window-height="1090"
   id="namedview923"
   showgrid="false"
   inkscape:zoom="2.0035322"
   inkscape:cx="221.85817"
   inkscape:cy="221.1095"
   inkscape:window-x="0"
   inkscape:window-y="34"
   inkscape:window-maximized="1"
   inkscape:current-layer="Capa_1" />
<path
   id="XMLID_32_"
   d="M339.734,133.344c22.749,0,41.255-18.507,41.255-41.255s-18.507-41.255-41.255-41.255  c-22.748,0-41.254,18.507-41.254,41.255S316.987,133.344,339.734,133.344z M339.734,68.834c12.823,0,23.255,10.432,23.255,23.255  s-10.432,23.255-23.255,23.255c-12.822,0-23.254-10.432-23.254-23.255S326.912,68.834,339.734,68.834z M104.157,308.875  c-22.748,0-41.254,18.507-41.254,41.255s18.507,41.255,41.254,41.255c22.749,0,41.255-18.507,41.255-41.255  S126.905,308.875,104.157,308.875z M104.157,373.385c-12.822,0-23.254-10.432-23.254-23.255s10.432-23.255,23.254-23.255  c12.823,0,23.255,10.432,23.255,23.255S116.98,373.385,104.157,373.385z M418.337,258.288  c-11.108-27.495-38.254-46.179-68.207-46.179H247.18c-3.739-10.801-14.014-18.578-26.07-18.578s-22.331,7.777-26.07,18.578H92.089  c-21.525,0-41.133-12.788-50.211-31.936c7.956-4.844,13.279-13.599,13.279-23.574s-5.323-18.731-13.279-23.575  c9.078-19.147,28.687-31.936,50.211-31.936h174.684c4.45,36.306,35.474,64.511,72.961,64.511c40.534,0,73.51-32.977,73.51-73.511  c0-40.533-32.977-73.51-73.51-73.51c-37.488,0-68.511,28.205-72.961,64.51H92.089c-29.952,0-57.099,18.684-68.208,46.179  C10.417,131.08,0,142.646,0,156.6s10.417,25.519,23.881,27.331c11.108,27.495,38.255,46.179,68.208,46.179H195.04  c3.739,10.801,14.014,18.578,26.07,18.578s22.331-7.777,26.07-18.578h102.95c21.525,0,41.133,12.788,50.21,31.936  c-7.956,4.844-13.279,13.599-13.279,23.574s5.323,18.731,13.279,23.575c-9.077,19.147-28.686,31.936-50.21,31.936H177.12  c-4.451-36.306-35.475-64.511-72.963-64.511c-40.533,0-73.509,32.977-73.509,73.511c0,40.533,32.976,73.51,73.509,73.51  c37.489,0,68.513-28.205,72.963-64.51h173.01c29.953,0,57.099-18.684,68.207-46.179c13.465-1.813,23.882-13.379,23.882-27.332  S431.802,260.101,418.337,258.288z M339.734,36.579c30.608,0,55.51,24.901,55.51,55.51s-24.902,55.511-55.51,55.511  c-30.608,0-55.509-24.902-55.509-55.511S309.126,36.579,339.734,36.579z M29.085,166.06c-0.074,0.01-0.147,0.021-0.222,0.032  c-0.42,0.057-0.849,0.086-1.285,0.086c-5.282,0-9.579-4.297-9.579-9.578c0-5.282,4.297-9.579,9.579-9.579  c0.434,0,0.861,0.029,1.28,0.085c0.077,0.013,0.153,0.023,0.23,0.034c4.566,0.727,8.067,4.692,8.067,9.46  C37.156,161.368,33.653,165.335,29.085,166.06z M221.11,230.688c-5.281,0-9.578-4.297-9.578-9.578s4.296-9.578,9.578-9.578  s9.578,4.297,9.578,9.578S226.391,230.688,221.11,230.688z M104.157,405.64c-30.608,0-55.509-24.901-55.509-55.51  s24.901-55.511,55.509-55.511c30.609,0,55.511,24.902,55.511,55.511S134.766,405.64,104.157,405.64z M414.639,295.198  c-0.433,0-0.86-0.029-1.278-0.085c-0.078-0.013-0.156-0.024-0.234-0.034c-4.565-0.728-8.065-4.693-8.065-9.46  c0-4.769,3.502-8.734,8.07-9.46c0.075-0.01,0.149-0.021,0.224-0.032c0.42-0.057,0.849-0.086,1.284-0.086  c5.282,0,9.58,4.297,9.58,9.578C424.219,290.901,419.921,295.198,414.639,295.198z"
   style="fill:#000000;fill-opacity:1" />
<g
   id="g892">
</g>
<g
   id="g894">
</g>
<g
   id="g896">
</g>
<g
   id="g898">
</g>
<g
   id="g900">
</g>
<g
   id="g902">
</g>
<g
   id="g904">
</g>
<g
   id="g906">
</g>
<g
   id="g908">
</g>
<g
   id="g910">
</g>
<g
   id="g912">
</g>
<g
   id="g914">
</g>
<g
   id="g916">
</g>
<g
   id="g918">
</g>
<g
   id="g920">
</g>
<path
   style="fill:#9cbbff;fill-opacity:1;stroke:none;stroke-width:0.49911851;stroke-miterlimit:4;stroke-dasharray:none;paint-order:stroke fill markers"
   d="m 216.63362,229.68378 c -5.83456,-3.1664 -6.88961,-10.56678 -2.17816,-15.27823 4.42383,-4.42383 11.2366,-3.768 14.66433,1.41166 1.15655,1.74765 1.37313,2.60479 1.37313,5.43411 0,3.00268 -0.16197,3.5593 -1.52624,5.2449 -2.54038,3.13872 -3.88866,3.88357 -7.33848,4.05412 -2.40065,0.11868 -3.54495,-0.0799 -4.99458,-0.86656 z"
   id="path4644"
   inkscape:connector-curvature="0" /><path
   style="fill:#ffabff;fill-opacity:1;stroke:none;stroke-width:0.49911851;stroke-miterlimit:4;stroke-dasharray:none;paint-order:stroke fill markers"
   d="m 24.107424,165.51054 c -3.924205,-1.69977 -5.989422,-4.78136 -5.989422,-8.93707 0,-3.10449 0.713143,-4.83005 2.825372,-6.8364 3.004763,-2.85414 6.879577,-3.58064 10.401268,-1.95015 3.776268,1.74836 5.739863,4.75422 5.739863,8.78655 0,2.7433 -0.692612,4.59599 -2.402566,6.4267 -2.803979,3.002 -7.090279,4.01956 -10.574515,2.51037 z"
   id="path4646"
   inkscape:connector-curvature="0" /><path
   style="fill:#ffabff;fill-opacity:1;stroke:none;stroke-width:0.49911851;stroke-miterlimit:4;stroke-dasharray:none;paint-order:stroke fill markers"
   d="m 410.17559,294.14516 c -3.14519,-1.9534 -5.25132,-5.44026 -5.22979,-8.6583 0.0227,-3.3881 2.98068,-7.65157 6.13574,-8.84363 1.80285,-0.68117 5.36937,-0.68117 7.17223,0 3.2064,1.21146 6.12477,5.47715 6.12477,8.95238 0,3.47523 -2.91837,7.74092 -6.12477,8.95238 -2.25684,0.85269 -6.38837,0.64667 -8.07818,-0.40283 z"
   id="path4648"
   inkscape:connector-curvature="0" /><path
   style="fill:#6545cc;fill-opacity:1;stroke:none;stroke-width:0.49911851;stroke-miterlimit:4;stroke-dasharray:none;paint-order:stroke fill markers"
   d="m 98.018253,372.6478 c -6.246082,-1.67934 -11.89639,-6.48788 -14.903869,-12.68354 -1.628623,-3.35509 -1.838237,-4.24946 -2.020833,-8.62234 -0.244461,-5.85444 0.868522,-10.00035 3.84885,-14.33711 9.271418,-13.4911 29.439109,-13.4345 38.482439,0.108 4.68402,7.01436 5.28851,15.55281 1.64919,23.29478 -1.62063,3.44759 -6.96485,8.91462 -10.25478,10.49044 -5.3272,2.55163 -11.44772,3.18907 -16.800997,1.74977 z"
   id="path4650"
   inkscape:connector-curvature="0" /><path
   style="fill:#6545cc;fill-opacity:1;stroke:none;stroke-width:0.49911851;stroke-miterlimit:4;stroke-dasharray:none;paint-order:stroke fill markers"
   d="m 333.60219,114.60354 c -6.22968,-1.67493 -11.84139,-6.41946 -14.89096,-12.58984 -1.6695,-3.378003 -1.85952,-4.184947 -2.03926,-8.660052 -0.23762,-5.915938 0.86931,-10.049468 3.85437,-14.393101 10.98702,-15.98753 35.75238,-12.20135 41.47968,6.341501 1.71773,5.56134 1.24492,11.545194 -1.34806,17.061282 -1.62063,3.44759 -6.96484,8.91462 -10.25477,10.49043 -5.32721,2.55164 -11.44773,3.18907 -16.801,1.74978 z"
   id="path4652"
   inkscape:connector-curvature="0" /></svg>