<svg xmlns="http://www.w3.org/2000/svg" xmlns:xlink="http://www.w3.org/1999/xlink" xmlns:fi="http://pattern.flaticon.com/" x="0" y="0" width="700" height="350" viewBox="0 0 700 350"><rect x="0px" y="0px" width="100%" height="100%" opacity="1" fill="#ffffff"/><defs><g transform="matrix(0.099174864590168 0 0 0.099174864590168 150 325)" id="L1_0"><path d="M89.936,112.12 252.08,18.488 414.224,112.12 414.224,387.352 252.08,480.968 89.936,387.352z" fill="#ed6362"/><path d="M121.936,368.872 121.936,130.584 252.08,55.448 382.224,130.584 382.224,368.872   252.08,444.008z" fill="#e95454"/><path d="M214.752,101.976c-0.56,11.024,8.224,20.176,19.056,20.176h67.616  c11.024,0,19.808,9.152,19.248,20.176c-0.56,10.272-9.904,18.128-20.176,18.128h-63.888c-10.272,0.192-18.496,8.592-18.496,19.056  s8.592,19.056,19.056,19.056h82.192c8.96,0,16.256,7.28,16.064,16.064v1.488c0.56,8.592-6.352,16.064-15.136,16.064H200.544  c-10.464,0-19.616,7.664-20.368,17.936c-0.368,11.024,8.224,20.176,19.248,20.176h113.584c8.784,0,16.064,7.28,16.064,16.064  l-0.192,1.12v0.192c0.192,9.344-7.472,17.008-16.816,17.008h-78.64c-10.464,0-19.616,7.664-20.368,18.128  c-0.368,11.024,8.224,20.176,19.248,20.176h83.312c9.344,0,16.064,7.664,16.064,17.008c0,0,0,0,0,0.192s0,0.192,0,0.192  c0,9.152-6.72,16.992-16.064,16.992H248.56c-10.272,0-19.424,7.664-19.984,17.936c-0.56,11.216,8.224,20.176,19.056,20.176H301.6  l80.64-46.56V130.584L301.616,84.04h-66.688C224.464,84.04,215.312,91.704,214.752,101.976z" fill="#dc4e4f"/><g><path d="M189.152,286.872c0.352-2.64,1.984-4.912,2.768-7.392c0.752-2.48,0.816-5.104,0.784-7.76   c-0.096-2.672-0.272-5.344-1.2-8.304c-0.272-0.096-0.544-0.192-0.832-0.288c-2.24,1.888-3.552,4.112-4.608,6.48   c-0.992,2.384-1.712,4.896-1.536,7.712c0.208,2.832,1.456,5.936,1.632,8.736c0.032,0.368-0.064,0.704-0.064,1.056   c-5.744-7.008-10.656-14.448-14.736-22.192c0.112-1.568,0.368-3.04,0.976-4.352c0.992-2.288,3.088-3.984,4.432-6.048   c1.312-2.08,1.968-4.432,2.528-6.864c0.512-2.448,0.912-4.928,0.656-7.84c-0.24-0.144-0.496-0.288-0.736-0.432   c-2.56,1.248-4.304,3.008-5.856,4.928c-1.472,1.968-2.736,4.08-3.216,6.672c-0.448,2.608,0,5.68-0.496,8.24   c-0.08,0.496-0.32,0.912-0.464,1.392c-3.696-7.744-6.576-15.744-8.608-23.92c0.464-1.76,1.088-3.408,2.144-4.704   c1.44-1.856,3.824-2.944,5.536-4.528c1.696-1.6,2.816-3.648,3.84-5.76c0.992-2.16,1.872-4.368,2.192-7.168   c-0.208-0.192-0.416-0.384-0.624-0.576c-2.672,0.592-4.704,1.824-6.56,3.28c-1.808,1.472-3.456,3.168-4.448,5.44   c-0.976,2.304-1.184,5.232-2.224,7.456c-0.272,0.592-0.656,1.056-1.008,1.584c-1.68-8.096-2.544-16.304-2.592-24.544   c0.896-1.952,1.968-3.712,3.52-4.88c1.744-1.392,4.208-1.84,6.144-2.928c1.92-1.104,3.36-2.768,4.752-4.544   c1.36-1.824,2.608-3.728,3.456-6.32c-0.16-0.224-0.304-0.464-0.464-0.688c-2.624-0.064-4.768,0.672-6.8,1.616   c-1.984,0.992-3.856,2.208-5.248,4.128c-1.376,1.952-2.176,4.64-3.6,6.48c-0.48,0.64-1.072,1.12-1.664,1.632   c0.304-8.048,1.376-16.08,3.248-24.016c0.08-0.128,0.176-0.24,0.256-0.368c1.392-1.952,2.928-3.664,4.848-4.528   c1.888-0.912,4.272-0.752,6.272-1.344c2-0.624,3.68-1.888,5.312-3.28c1.616-1.456,3.168-3.024,4.496-5.376   c-0.096-0.256-0.192-0.528-0.288-0.784c-2.416-0.64-4.528-0.416-6.592,0.032c-2.048,0.512-4.016,1.248-5.696,2.784   c-1.68,1.552-2.976,3.984-4.672,5.376c-0.736,0.64-1.552,1.072-2.384,1.472c2.256-7.872,5.312-15.616,9.168-23.12   c0.08,0.08,0.144,0.176,0.224,0.272c0.336-0.304,0.656-0.624,0.992-0.928c1.696-1.568,3.488-2.88,5.424-3.28   c1.92-0.448,4.048,0.24,6,0.112c1.952-0.16,3.76-1.024,5.568-2.048c1.808-1.088,3.584-2.304,5.328-4.368   c-0.016-0.288-0.048-0.56-0.064-0.848c-2.032-1.152-4-1.376-5.984-1.392c-1.968,0.048-3.936,0.352-5.824,1.472   c-1.888,1.168-3.616,3.232-5.488,4.224c-0.912,0.512-1.856,0.832-2.832,1.008c0.032-0.176,0.032-0.336,0.064-0.512   c6.24-10.672,14.16-20.784,23.776-29.984c-9.12,8.144-16.88,17.104-23.28,26.672c0.016-0.288,0.16-0.624,0.16-0.896   c0.144-2.064,0.256-4.096,0.048-6.032c-0.656-3.776-1.776-7.44-4.816-10.512c-0.32,0.112-0.656,0.224-0.976,0.336   c-3.232,5.232-4.064,9.808-4.08,13.984c0.128,2.032,0.64,3.904,1.312,5.696c0.544,1.84,1.552,3.472,2.768,4.976   c0.176,0.208,0.352,0.432,0.528,0.64c-3.664,6.432-6.736,13.104-9.232,19.92c-0.016-0.064,0-0.144-0.016-0.208   c-0.432-2.16-0.912-4.288-1.648-6.256c-1.712-3.808-3.792-7.424-7.584-10.128c-0.256,0.24-0.544,0.416-0.832,0.576   c-1.744,6.016-1.312,10.912-0.16,15.248c0.688,2.096,1.728,3.936,2.896,5.68c1.072,1.824,2.512,3.328,4.16,4.672   c0.048,0.032,0.096,0.08,0.144,0.112c-1.888,6.768-3.216,13.632-3.984,20.576c-1.008-2.032-2.032-4.064-3.264-5.872   c-2.768-3.632-5.84-7.04-10.352-9.216c-0.24,0.224-0.48,0.448-0.72,0.672c-0.112,6.512,1.664,11.504,4.032,15.776   c1.28,2.048,2.832,3.76,4.496,5.344c1.456,1.552,3.216,2.72,5.072,3.76c-0.192,6.848,0.16,13.712,1.056,20.544   c-1.504-1.776-2.992-3.552-4.64-5.088c-3.824-3.232-7.856-6.208-12.992-7.728c-0.176,0.272-0.368,0.528-0.544,0.8   c1.648,6.688,4.816,11.504,8.416,15.44c1.872,1.856,3.936,3.344,6.08,4.672c1.712,1.184,3.632,1.936,5.568,2.624   c1.456,6.672,3.456,13.264,6,19.728c-1.936-1.424-3.84-2.88-5.84-4.08c-4.832-2.608-9.776-4.944-15.44-5.648   c-0.112,0.288-0.224,0.592-0.336,0.896c3.504,6.528,8.096,10.88,12.896,14.224c2.448,1.552,5.008,2.688,7.584,3.632   c1.872,0.784,3.84,1.136,5.808,1.472c3.088,6.224,6.704,12.288,10.848,18.144c-2.288-1.008-4.576-2.08-6.864-2.88   c-5.76-1.744-11.536-3.248-17.616-3.008c-0.032,0.32-0.08,0.656-0.112,0.976c5.44,6,11.424,9.552,17.392,12.064   c2.992,1.12,6,1.792,8.976,2.256c1.952,0.4,3.872,0.336,5.808,0.352c3.216,3.792,6.688,7.456,10.4,10.992   c1.952-1.808,3.904-3.616,5.872-5.424c-4.256-3.808-8.224-7.792-11.872-11.936C189.008,289.448,188.944,288.12,189.152,286.872z" fill="#ffffff"/><path d="M348.288,254.664c-2,1.2-3.92,2.672-5.84,4.08c2.544-6.464,4.544-13.072,6-19.728   c1.936-0.688,3.856-1.44,5.568-2.624c2.144-1.312,4.208-2.8,6.08-4.672c3.6-3.952,6.768-8.768,8.416-15.44   c-0.176-0.272-0.368-0.544-0.544-0.8c-5.136,1.52-9.168,4.496-12.992,7.728c-1.648,1.536-3.152,3.328-4.64,5.088   c0.912-6.832,1.264-13.696,1.072-20.544c1.856-1.04,3.616-2.208,5.072-3.76c1.664-1.584,3.216-3.296,4.496-5.344   c2.368-4.272,4.144-9.264,4.032-15.776c-0.24-0.224-0.48-0.448-0.72-0.672c-4.512,2.176-7.568,5.584-10.352,9.216   c-1.232,1.824-2.24,3.84-3.264,5.872c-0.768-6.928-2.096-13.808-3.984-20.576c0.048-0.032,0.096-0.08,0.144-0.112   c1.648-1.344,3.104-2.848,4.16-4.672c1.168-1.744,2.208-3.584,2.896-5.68c1.152-4.336,1.568-9.248-0.16-15.248   c-0.288-0.176-0.576-0.336-0.864-0.512c-3.792,2.704-5.872,6.32-7.584,10.128c-0.736,1.968-1.216,4.096-1.648,6.256   c-0.016,0.064-0.016,0.144-0.016,0.208c-2.496-6.816-5.568-13.488-9.232-19.92c0.176-0.208,0.352-0.432,0.528-0.64   c1.232-1.504,2.224-3.136,2.768-4.976c0.672-1.792,1.184-3.648,1.312-5.696c-0.016-4.176-0.848-8.752-4.08-13.984   c-0.32-0.112-0.656-0.224-0.976-0.336c-3.04,3.072-4.16,6.736-4.816,10.512c-0.208,1.936-0.096,3.968,0.048,6.032   c0,0.272,0.128,0.608,0.16,0.896c-6.4-9.568-14.16-18.544-23.28-26.672c9.632,9.2,17.552,19.296,23.776,29.984   c0.032,0.176,0.048,0.336,0.064,0.512c-0.96-0.192-1.92-0.496-2.832-1.008c-1.856-0.992-3.6-3.056-5.488-4.224   c-1.888-1.12-3.856-1.424-5.824-1.472c-1.984,0.016-3.952,0.24-5.984,1.392c-0.016,0.288-0.048,0.56-0.064,0.848   c1.744,2.064,3.52,3.28,5.328,4.368c1.808,1.024,3.616,1.888,5.568,2.048c1.952,0.128,4.064-0.576,6-0.112   c1.936,0.4,3.728,1.712,5.424,3.28c0.336,0.304,0.656,0.608,0.992,0.928c0.08-0.096,0.144-0.176,0.224-0.272   c3.84,7.504,6.896,15.232,9.168,23.12c-0.832-0.4-1.648-0.832-2.384-1.472c-1.696-1.408-2.992-3.824-4.672-5.376   c-1.68-1.52-3.648-2.272-5.696-2.784c-2.064-0.448-4.176-0.672-6.592-0.032c-0.096,0.256-0.192,0.528-0.288,0.784   c1.312,2.352,2.88,3.92,4.496,5.376c1.648,1.392,3.312,2.656,5.312,3.28c2,0.608,4.384,0.432,6.272,1.344   c1.92,0.864,3.456,2.576,4.848,4.528c0.08,0.128,0.176,0.24,0.256,0.368c1.856,7.936,2.944,15.968,3.232,24.016   c-0.592-0.512-1.184-0.976-1.664-1.632c-1.424-1.824-2.224-4.528-3.6-6.48c-1.392-1.92-3.264-3.12-5.248-4.128   c-2.032-0.944-4.16-1.664-6.8-1.616c-0.16,0.224-0.304,0.464-0.464,0.688c0.848,2.592,2.112,4.512,3.456,6.32   c1.392,1.76,2.832,3.44,4.752,4.544c1.936,1.088,4.4,1.536,6.144,2.928c1.536,1.168,2.608,2.928,3.52,4.88   c-0.048,8.24-0.928,16.464-2.592,24.544c-0.352-0.528-0.752-0.992-1.008-1.584c-1.04-2.208-1.248-5.152-2.224-7.456   c-0.992-2.272-2.64-3.968-4.448-5.44c-1.856-1.456-3.888-2.688-6.56-3.28c-0.208,0.192-0.416,0.384-0.608,0.576   c0.32,2.784,1.216,5.008,2.192,7.168c1.04,2.112,2.144,4.144,3.84,5.76c1.712,1.584,4.096,2.672,5.536,4.528   c1.056,1.296,1.68,2.944,2.144,4.704c-2.048,8.176-4.912,16.192-8.608,23.92c-0.128-0.464-0.368-0.896-0.464-1.392   c-0.496-2.544-0.048-5.632-0.496-8.24c-0.48-2.592-1.744-4.704-3.216-6.672c-1.536-1.936-3.296-3.68-5.84-4.928   c-0.24,0.144-0.496,0.288-0.736,0.432c-0.256,2.912,0.144,5.392,0.656,7.84c0.56,2.416,1.216,4.784,2.528,6.864   c1.328,2.064,3.44,3.76,4.432,6.048c0.608,1.312,0.864,2.784,0.976,4.352c-4.064,7.744-8.976,15.184-14.72,22.192   c0-0.352-0.08-0.704-0.064-1.056c0.176-2.8,1.424-5.904,1.632-8.736c0.176-2.816-0.544-5.328-1.536-7.712   c-1.056-2.368-2.368-4.608-4.608-6.48c-0.272,0.096-0.544,0.192-0.832,0.288c-0.928,2.96-1.104,5.632-1.2,8.304   c-0.032,2.656,0.016,5.28,0.784,7.76c0.784,2.464,2.416,4.752,2.768,7.392c0.208,1.248,0.144,2.576-0.048,3.92   c-3.648,4.144-7.616,8.144-11.872,11.936c1.952,1.808,3.92,3.616,5.872,5.424c3.712-3.536,7.168-7.216,10.4-10.992   c1.92-0.016,3.84,0.048,5.808-0.352c2.976-0.464,5.968-1.136,8.976-2.256c5.968-2.512,11.968-6.064,17.392-12.064   c-0.032-0.32-0.064-0.656-0.112-0.976c-6.08-0.24-11.856,1.264-17.616,3.008c-2.288,0.8-4.576,1.872-6.864,2.88   c4.144-5.856,7.76-11.92,10.848-18.144c1.968-0.336,3.92-0.688,5.808-1.472c2.592-0.944,5.136-2.08,7.584-3.632   c4.816-3.344,9.392-7.696,12.896-14.224c-0.112-0.304-0.224-0.608-0.336-0.912C358.064,249.72,353.12,252.056,348.288,254.664z" fill="#ffffff"/><path d="M252.08,142.04 269.008,194.136 323.792,194.136 279.472,226.344 296.4,278.44    252.08,246.232 207.76,278.44 224.688,226.344 180.368,194.136 235.152,194.136z" fill="#ffffff"/></g><g><path d="M252.08,142.04 252.08,216.408 269.008,194.136z" fill="#e5e5e5"/><path d="M252.08,216.408 323.792,194.136 279.472,226.344z" fill="#e5e5e5"/><path d="M252.08,216.408 296.4,278.44 252.08,246.232z" fill="#e5e5e5"/><path d="M252.08,216.408 224.688,226.344 207.76,278.44z" fill="#e5e5e5"/><path d="M180.368,194.136 235.152,194.136 252.08,216.408z" fill="#e5e5e5"/></g><path d="M27.792,485.672c34.736-16.352,70.608-28.72,107.056-37.136c-4.848-24.816-9.68-49.648-14.528-74.464  C79.36,383.528,39.04,397.432,0,415.816c16.8,5.92,33.04,12.592,48.704,19.936C40.944,452.28,33.984,468.936,27.792,485.672z" fill="#fdbc4b"/><path d="M128.144,414.2c2.24,11.44,4.464,22.896,6.704,34.336c-17.04-8.032-34.816-15.216-53.28-21.424  C96.96,422.12,112.496,417.816,128.144,414.2z" fill="#ec9922"/><path d="M476.368,485.672c-34.736-16.352-70.608-28.72-107.056-37.136  c4.848-24.816,9.68-49.648,14.528-74.464c40.96,9.456,81.28,23.36,120.32,41.744c-16.8,5.92-33.04,12.592-48.704,19.936  C463.216,452.28,470.176,468.936,476.368,485.672z" fill="#fdbc4b"/><path d="M376.016,414.2c-2.24,11.44-4.464,22.896-6.704,34.336c17.04-8.032,34.816-15.216,53.28-21.424  C407.2,422.12,391.664,417.816,376.016,414.2z" fill="#ec9922"/><path d="M422.608,427.112c-111.232-36.064-229.808-36.064-341.04,0  c-8.624-31.488-17.264-62.976-25.888-94.464c128.128-41.536,264.688-41.536,392.816,0  C439.856,364.136,431.232,395.624,422.608,427.112z" fill="#ffcc5b"/><g><path d="M149.744,327.304c4.08,7.568,8.048,15.152,11.936,22.8c9.184-1.408,18.384-2.592,27.6-3.568   c-7.008,5.792-13.856,11.728-20.512,17.76c3.76,7.68,7.424,15.392,10.992,23.136c-7.568-4.096-15.296-8.032-23.168-11.808   c-6.448,6.176-12.736,12.464-18.848,18.848c1.264-8.56,2.624-17.104,4.096-25.664c-8.048-3.568-16.224-6.976-24.544-10.208   c9.104-2.096,18.224-3.984,27.376-5.648C146.272,344.392,147.952,335.848,149.744,327.304z" fill="#ffffff"/><path d="M252.08,318.776c2.96,8.144,5.808,16.32,8.576,24.496c9.248,0.128,18.496,0.48,27.744,1.04   c-7.728,4.576-15.312,9.296-22.736,14.16c2.64,8.208,5.184,16.432,7.616,24.688c-6.896-5.296-13.968-10.48-21.184-15.504   c-7.232,5.04-14.288,10.208-21.184,15.504c2.432-8.24,4.976-16.464,7.616-24.688c-7.424-4.864-15.008-9.584-22.736-14.16   c9.248-0.56,18.48-0.912,27.744-1.04C246.272,335.096,249.12,326.936,252.08,318.776z" fill="#ffffff"/><path d="M354.416,327.304c1.792,8.544,3.488,17.088,5.072,25.648c9.152,1.664,18.288,3.552,27.376,5.648   c-8.32,3.232-16.496,6.64-24.544,10.208c1.472,8.56,2.832,17.104,4.096,25.664c-6.112-6.384-12.384-12.672-18.848-18.848   c-7.872,3.776-15.584,7.712-23.152,11.808c3.568-7.744,7.232-15.456,10.992-23.136c-6.672-6.048-13.504-11.968-20.512-17.76   c9.216,0.976,18.416,2.16,27.6,3.568C346.368,342.472,350.336,334.872,354.416,327.304z" fill="#ffffff"/></g></g><g transform="matrix(0.13678286969661713 0 0 0.13678286969661713 315 315)" id="L1_1"><g><rect x="247px" y="192px" width="16px" height="38px" fill="#ec9922"/><path d="M255.878,198.848c-18.88,0-34.256-15.36-34.256-34.256s15.376-34.24,34.256-34.24   s34.24,15.36,34.24,34.256S274.758,198.848,255.878,198.848z M255.878,146.352c-10.064,0-18.256,8.192-18.256,18.256   s8.192,18.256,18.256,18.256s18.24-8.192,18.24-18.256S265.942,146.352,255.878,146.352z" fill="#ec9922"/></g><g><path d="M360.71,37.856H151.062c-10.448,0-18.928-8.48-18.928-18.928l0,0C132.134,8.48,140.614,0,151.062,0   H360.71c10.448,0,18.928,8.48,18.928,18.928l0,0C379.638,29.392,371.158,37.856,360.71,37.856z" fill="#e95454"/><path d="M360.71,164.608H151.062c-10.448,0-18.928-8.48-18.928-18.928l0,0   c0-10.448,8.48-18.928,18.928-18.928H360.71c10.448,0,18.928,8.48,18.928,18.928l0,0   C379.638,156.128,371.158,164.608,360.71,164.608z" fill="#e95454"/></g><rect x="162px" y="18px" width="187px" height="126px" fill="#3789c9"/><g><rect x="195px" y="18px" width="19px" height="126px" fill="#ffffff"/><rect x="296px" y="18px" width="19px" height="126px" fill="#ffffff"/></g><path d="M395.174,341.296l-0.064-0.048c-9.808-7.056-13.28-20.048-8.32-31.056l0.016-0.032  c7.136-15.84-3.36-34-20.656-35.728c-12.032-1.2-21.568-10.72-22.768-22.768l0,0c-1.728-17.28-19.888-27.776-35.728-20.656  l-0.032,0.016c-11.008,4.96-24,1.488-31.056-8.32l-0.048-0.064c-10.144-14.08-31.104-14.08-41.248,0l-0.048,0.064  c-7.056,9.808-20.048,13.28-31.056,8.32l-0.032-0.016c-15.84-7.136-34,3.36-35.728,20.656c-1.2,12.048-10.72,21.568-22.768,22.768  l0,0c-17.28,1.728-27.776,19.888-20.656,35.728l0.016,0.032c4.96,11.008,1.488,24-8.32,31.056l-0.064,0.048  c-14.08,10.144-14.08,31.104,0,41.248l0.064,0.048c9.808,7.056,13.28,20.048,8.32,31.056l-0.016,0.032  c-7.136,15.84,3.36,34,20.656,35.728c12.048,1.2,21.568,10.72,22.768,22.768l0,0c1.728,17.28,19.888,27.776,35.728,20.656  l0.032-0.016c11.008-4.96,24-1.488,31.056,8.32l0.048,0.064c10.144,14.08,31.104,14.08,41.248,0l0.048-0.064  c7.056-9.808,20.048-13.28,31.056-8.32l0.032,0.016c15.84,7.136,34-3.36,35.728-20.656c1.2-12.032,10.72-21.568,22.768-22.768l0,0  c17.28-1.728,27.776-19.888,20.656-35.728l-0.016-0.032c-4.96-11.008-1.488-24,8.32-31.056l0.064-0.048  C409.238,372.4,409.238,351.44,395.174,341.296z" fill="#fdbc4b"/><path d="M321.878,361.6c-0.64,8.8-8.48,15.36-17.44,15.36h-102.56c-7.52,0-13.44,6.4-12.96,13.76V392  c-0.16,7.52,6.08,13.76,13.76,13.76h46.4c8.96,0,16.32,7.36,16.32,16.32s-7.04,16.16-15.84,16.32h-30.72  c-8.8,0-16.8,6.72-17.28,15.52c-0.48,9.44,7.04,17.28,16.48,17.28h33.92c9.28,0,16.8,7.84,16.32,17.28  c-0.48,8.8-8.32,15.36-17.28,15.36h-13.6c-0.64-0.8-1.44-1.6-2.08-2.56l-0.16-0.16c-4.96-6.72-12.64-10.56-20.64-10.56  c-3.52,0-7.04,0.8-10.4,2.24c-3.52,1.6-7.04,2.24-10.4,2.24c-12.48,0-23.84-9.28-25.28-22.88c-1.28-12-10.72-21.6-22.72-22.72  c-17.44-1.76-27.84-19.84-20.8-35.68l0.16-0.16c4.96-10.88,1.44-24-8.32-31.04h-0.16c-14.08-10.08-14.08-31.04,0-41.28h0.16  c9.76-7.04,13.28-20,8.32-31.04l-0.16-0.16c-1.44-3.36-2.24-6.88-2.24-10.4c0-12.48,9.44-23.84,23.04-25.28  c12-1.12,21.44-10.72,22.72-22.72c1.44-13.6,12.8-22.88,25.28-22.88c3.36,0,6.88,0.64,10.4,2.24c11.04,4.96,24,1.44,31.04-8.32  l0.16-0.16c0.64-0.96,1.44-1.76,2.08-2.56h10.72c9.28,0,16.8,7.68,16.32,17.28c-0.48,8.8-8.32,15.36-17.12,15.36h-41.44  c-8,0-13.76,6.72-13.76,14.56c0,0,0,0,0,0.16s0,0.16,0,0.16c0,8,5.76,14.56,13.76,14.56h71.36c9.44,0,16.8,7.84,16.48,17.28  c-0.64,8.96-8.48,15.52-17.44,15.52h-67.36c-8,0-14.56,6.56-14.4,14.56v0.16l-0.16,0.96c0,7.52,6.24,13.76,13.76,13.76h97.28  C314.838,344.32,322.182,352.16,321.878,361.6z" fill="#f7b343"/><g><path d="M255.878,252.416c-60.384,0-109.504,49.12-109.504,109.504s49.12,109.504,109.504,109.504   s109.504-49.12,109.504-109.504S316.262,252.416,255.878,252.416z M255.878,454.256c-50.912,0-92.336-41.424-92.336-92.336   s41.424-92.336,92.336-92.336s92.336,41.408,92.336,92.336S306.79,454.256,255.878,454.256z" fill="#ffdb70"/><path d="M309.43,374.24c-8.64,15.04-4.64,32.96-1.12,43.04c-13.6,12.96-32.16,20.96-52.48,20.96   c-3.36,0-6.72-0.16-10.08-0.64v-12.32c-2.08-9.28-10.4-9.44-10.88-9.44c-40.8,10.08-27.52-16.8-27.52-16.8   c-5.76,0-4.96-7.36-4.96-7.36c-6.4-1.92-2.4-6.88-2.4-6.88v-5.12c-6.08,0.48-8.48-3.04-8.48-3.04   c-3.04-6.88,10.88-24.96,10.88-24.96c-2.08-14.08,0-27.84,0-27.84c2.72-13.44,9.12-22.08,14.72-27.36l0.48-0.48   c5.6-4.8,10.24-6.56,10.24-6.56c44-18.72,72.16,8.64,72.16,8.64c3.04,2.72,5.6,5.44,7.68,8.16   C335.67,339.84,309.43,374.24,309.43,374.24z" fill="#ffdb70"/></g><path d="M252.63,302.784c0,8.368,6.88,15.248,15.248,15.248h11.872  c7.168,0,13.008,5.84,12.864,12.848v1.2c0.448,6.88-5.088,12.848-12.112,12.848h-25.92c-8.368,0-15.696,6.128-16.288,14.352  c-0.304,8.816,6.576,16.144,15.392,16.144h20.992c7.024,0,12.864,5.824,12.864,12.848l-0.144,0.896v0.144  c0.144,7.472-5.984,13.6-13.456,13.6h-9.04c-8.368,0-15.696,6.128-16.288,14.496c-0.304,8.816,6.576,16.144,15.392,16.144h17.344  c10.128-3.616,19.376-9.072,26.976-16.32c-3.52-10.08-7.52-28,1.12-43.04c0,0,26.24-34.4-1.76-68c-2.08-2.72-4.64-5.44-7.68-8.16  c0,0-6.336-6.08-17.584-10.544h-14.96C259.206,287.68,252.63,294.416,252.63,302.784z" opacity="0.15" fill="#ffffff"/><path d="M263.926,133.04c0.256-7.616-5.68-13.952-13.312-13.952  h-59.168c-6.064,0-11.104-5.04-11.104-11.104l0.128-0.768v-0.144c-0.128-6.464,5.168-11.76,11.632-11.76h73.776  c7.232,0,13.568-5.296,14.08-12.528c0.256-7.616-5.68-13.952-13.312-13.952h-77.008c-6.464,0-11.104-5.296-11.104-11.76  c0,0,0,0,0-0.128s0-0.128,0-0.128c0-6.336,4.656-11.76,11.104-11.76h52.848c7.104,0,13.44-5.296,13.824-12.4  c0.384-7.76-5.68-13.952-13.184-13.952h-79.824V145.44h86.544C257.078,145.44,263.414,140.144,263.926,133.04z" opacity="0.2" fill="#f0eeed"/></g><g transform="matrix(0.098188616335392 0 0 0.098188616335392 237.5 150)" id="L1_2"><path d="M58.772,260.98c5.008,6.24,7.152,14.288,5.936,22.192l-4.432,28.784  c-2.048,13.232,5.392,26.096,17.872,30.928l27.136,10.512c7.472,2.896,13.392,8.816,16.288,16.288l0.448,1.168h265.168l0.448-1.168  c2.896-7.472,8.816-13.392,16.288-16.288l27.136-10.512c12.48-4.832,19.92-17.712,17.872-30.928l-4.432-28.8  c-1.216-7.904,0.944-15.952,5.936-22.192l18.256-22.752c8.368-10.432,8.368-25.264,0-35.696l-18.256-22.752  c-5.008-6.24-7.152-14.288-5.936-22.192l4.432-28.784c2.048-13.232-5.392-26.096-17.872-30.944l-27.136-10.512  c-7.472-2.896-13.392-8.816-16.288-16.288l-10.512-27.136c-4.832-12.48-17.712-19.92-30.928-17.872l-28.8,4.432  c-7.904,1.216-15.952-0.944-22.192-5.936L272.452,6.276c-10.432-8.368-25.264-8.368-35.696,0L214.02,24.532  c-6.24,5.008-14.288,7.152-22.192,5.936l-28.784-4.432c-13.232-2.032-26.112,5.392-30.944,17.872L121.588,71.06  c-2.896,7.472-8.816,13.376-16.288,16.272L78.164,97.86c-12.48,4.832-19.92,17.712-17.872,30.928l4.432,28.8  c1.216,7.904-0.944,15.952-5.936,22.192l-18.256,22.752c-8.368,10.432-8.368,25.264,0,35.696L58.772,260.98z" fill="#3789c9"/><path d="M58.772,260.98c5.008,6.24,7.152,14.288,5.936,22.192l-4.432,28.784  c-2.048,13.232,5.392,26.096,17.872,30.944l27.136,10.512c7.472,2.896,13.392,8.816,16.288,16.288l0.448,1.168h28.016  c-3.088-4.272-4.864-9.536-4.576-15.248c0.704-12.928,12.464-22.8,25.392-22.8h93.568c12.928-0.24,23.28-10.816,23.28-23.984  s-10.816-23.984-23.984-23.984H147.108c-11.28,0-20.448-9.168-20.224-20.224v-1.888c-0.704-10.816,8-20.224,19.04-20.224h163.888  c13.168,0,24.688-9.648,25.632-22.576c0.464-13.872-10.352-25.392-24.224-25.392H155.108c-11.056,0-20.224-9.168-20.224-20.224  l0.24-1.408v-0.24c-0.24-11.76,9.408-21.408,21.152-21.408H268.42c13.168,0,24.688-9.632,25.632-22.8  c0.464-13.872-10.352-25.392-24.224-25.392H151.812c-11.76,0-20.224-9.648-20.224-21.392c0,0,0,0,0-0.24s0-0.24,0-0.24  c0-11.52,8.464-21.392,20.224-21.392h97.568c12.928,0,24.448-9.632,25.152-22.576c0.704-14.112-10.352-25.392-23.984-25.392h-20.704  L214.02,24.532c-6.24,5.008-14.288,7.152-22.192,5.936l-28.784-4.448c-13.248-2.032-26.112,5.408-30.944,17.888L121.588,71.06  c-2.912,7.472-8.816,13.376-16.288,16.272L78.148,97.86c-12.48,4.832-19.92,17.712-17.872,30.928l4.432,28.8  c1.216,7.904-0.944,15.952-5.936,22.192l-18.256,22.752c-8.368,10.432-8.368,25.264,0,35.68L58.772,260.98z" fill="#1387c4"/><path d="M254.612,364.996c-79.744,0-144.624-64.88-144.624-144.624s64.88-144.624,144.624-144.624  s144.624,64.88,144.624,144.624S334.356,364.996,254.612,364.996z" fill="#4b9fd8"/><path d="M229.956,91.812c-0.496,9.616,7.168,17.584,16.608,17.584h72.576c9.616,0,17.264,7.984,16.784,17.584  c-0.496,8.96-8.64,15.792-17.584,15.792h-69.328c-8.96,0.16-16.128,7.488-16.128,16.624s7.488,16.608,16.608,16.608h85.28  c7.824,0,14.176,6.352,14,14v1.312c0.496,7.488-5.536,14-13.2,14H217.556c-9.12,0-17.104,6.672-17.76,15.632  c-0.32,9.616,7.168,17.584,16.784,17.584h112.64c7.648,0,14,6.352,14,14l-0.16,0.976v0.16c0.16,8.144-6.512,14.832-14.656,14.832  h-82.192c-9.12,0-17.104,6.672-17.76,15.792c-0.32,9.616,7.168,17.584,16.784,17.584h86.256c8.144,0,14.016,6.672,14.016,14.816  c0,0,0,0,0,0.16s0,0.16,0,0.16c0,7.984-5.872,14.816-14.016,14.816h-72.08c-8.96,0-16.944,6.672-17.424,15.632  c-0.496,9.776,7.168,17.6,16.608,17.6h1.856c77.024-3.104,138.768-66.56,138.768-144.336c0-79.744-64.88-144.624-144.624-144.624  c-3.312,0-6.56,0.272-9.808,0.496C236.916,77.876,230.388,83.78,229.956,91.812z" fill="#50a9df"/><path d="M278.98,223.508h-48.736c-23.152,0-43.904-13.408-52.896-34.144l-11.936-27.552  c-2.72-6.272-2.096-13.456,1.664-19.184c3.904-5.952,10.56-9.504,17.792-9.504h139.488c7.232,0,13.888,3.552,17.792,9.504  c3.76,5.728,4.384,12.896,1.664,19.184l-11.936,27.552C322.9,210.1,302.132,223.508,278.98,223.508z M184.868,143.252  c-3.808,0-7.296,1.84-9.328,4.944c-1.92,2.912-2.224,6.416-0.848,9.616l11.936,27.552c7.376,17.04,24.496,28.048,43.616,28.048  h48.736c19.12,0,36.24-11.008,43.616-28.048l11.936-27.552c1.376-3.2,1.072-6.688-0.848-9.616c-2.032-3.088-5.52-4.944-9.328-4.944  H184.868z" fill="#fdbc4b"/><path d="M277.284,229.812c-4.224,9.824-4.784,21.024-0.48,30.848h-44.368c4.24-9.824,3.76-21.024-0.48-30.848  c-22.736-40.064-36.32-68.192-39.312-108.32h123.952C313.588,161.62,300.004,189.748,277.284,229.812z" fill="#fee218"/><path d="M285.636,260.628h-62.064c-3.776,0-6.832,3.056-6.832,6.832v5.296h75.712v-5.296  C292.468,263.684,289.412,260.628,285.636,260.628z" fill="#fdbc4b"/><path d="M301.956,272.756h-94.704c-3.776,0-6.832,3.056-6.832,6.832V309.3h108.368v-29.728  C308.788,275.812,305.732,272.756,301.956,272.756z" fill="#464646"/><path d="M317.62,108.292h-126c-3.648,0-6.608,2.96-6.608,6.608l0,0c0,3.648,2.96,6.608,6.608,6.608h126  c3.648,0,6.608-2.96,6.608-6.608l0,0C324.228,111.236,321.268,108.292,317.62,108.292z" fill="#fdbc4b"/><path d="M259.668,221.732c0-4.448-3.648-8.096-8.096-8.096h-12.928c-3.808,0-6.912-3.104-6.832-6.832v-0.64  c-0.24-3.648,2.704-6.832,6.432-6.832H265.3c4.448,0,8.336-3.248,8.656-7.616c0.16-4.688-3.488-8.576-8.176-8.576h-24.448  c-3.728,0-6.832-3.088-6.832-6.816l0.08-0.48v-0.08c-0.08-3.968,3.168-7.216,7.136-7.216h9.52c4.448,0,8.336-3.248,8.656-7.696  c0.16-4.688-3.488-8.576-8.176-8.576h-11.504c-3.968,0-6.832-3.248-6.832-7.216c0,0,0,0,0-0.08s0-0.08,0-0.08  c0-3.888,2.864-7.216,6.832-7.216h20.56c4.368,0,8.256-3.248,8.496-7.616c0.24-4.768-3.488-8.576-8.096-8.576h-68.528  c3.008,40.096,16.592,68.24,39.296,108.336c0,0,0.176,0,0.512,0c2.112,0,10.432,0,19.36,0  C256.18,229.748,259.668,226.18,259.668,221.732z" fill="#f8d41d"/><g><path d="M316.212,124.756c0.096-1.104,0.272-2.128,0.368-3.264   H192.66c0.08,1.12,0.256,2.16,0.368,3.264H316.212z" opacity="0.1" fill="#010101"/><path d="M422.676,343.524c-53.584-18.048-110.112-27.2-168.064-27.2   c-57.936,0-114.48,9.152-168.048,27.2l-3.632,1.216l22.368,8.672c7.472,2.896,13.392,8.816,16.288,16.288l0.448,1.168h265.168   l0.448-1.168c2.896-7.472,8.816-13.392,16.288-16.288l22.368-8.672L422.676,343.524z" opacity="0.1" fill="#010101"/></g><g><path d="M182.388,494.548c-58.096,19.568-123.36,19.568-181.44,0c11.28-15.312,22.832-31.344,34.544-48.128   c-11.712-21.424-23.264-43.6-34.544-66.496c58.096,19.568,123.36,19.568,181.44,0C182.388,418.116,182.388,456.324,182.388,494.548   z" fill="#e95454"/><path d="M326.836,494.548c58.096,19.568,123.36,19.568,181.44,0c-11.28-15.312-22.832-31.344-34.544-48.128   c11.712-21.424,23.264-43.6,34.544-66.496c-58.096,19.568-123.36,19.568-181.44,0C326.836,418.116,326.836,456.324,326.836,494.548   z" fill="#e95454"/></g><g><path d="M91.668,473.316 182.388,494.548 182.388,451.972 91.668,453.412z" fill="#cd494c"/><path d="M326.836,494.548 417.556,473.316 396.404,430.852 326.836,451.972z" fill="#cd494c"/></g><path d="M417.556,473.316c-104.336-35.136-221.568-35.136-325.904,0c0-38.208,0-76.432,0-114.64  c104.336-35.136,221.568-35.136,325.904,0C417.556,396.884,417.556,435.092,417.556,473.316z" fill="#ed6362"/><g><path d="M150.692,366.116c4.128,6.992,8.176,14.016,12.112,21.056c9.328-1.296,18.672-2.4,28.032-3.296   c-7.12,5.36-14.064,10.832-20.832,16.416c3.824,7.104,7.536,14.224,11.168,21.376c-7.696-3.776-15.536-7.424-23.52-10.912   c-6.56,5.712-12.928,11.52-19.136,17.424c1.28-7.904,2.672-15.808,4.16-23.712c-8.16-3.296-16.48-6.448-24.928-9.424   c9.232-1.936,18.512-3.68,27.808-5.232C147.156,381.908,148.868,374.004,150.692,366.116z" fill="#ffffff"/><path d="M254.612,358.244c3.008,7.52,5.904,15.072,8.704,22.64c9.392,0.128,18.784,0.448,28.16,0.96   c-7.856,4.224-15.552,8.592-23.088,13.088c2.672,7.584,5.264,15.184,7.728,22.816c-6.992-4.912-14.16-9.68-21.504-14.336   c-7.344,4.656-14.512,9.424-21.52,14.32c2.48-7.616,5.056-15.216,7.728-22.816c-7.536-4.496-15.232-8.864-23.088-13.088   c9.376-0.528,18.768-0.848,28.176-0.96C248.708,373.316,251.604,365.764,254.612,358.244z" fill="#ffffff"/><path d="M358.532,366.116c1.824,7.904,3.536,15.792,5.152,23.696c9.296,1.536,18.56,3.28,27.808,5.216   c-8.448,2.976-16.752,6.128-24.928,9.424c1.488,7.904,2.88,15.808,4.16,23.712c-6.208-5.904-12.576-11.712-19.136-17.424   c-7.984,3.488-15.824,7.136-23.52,10.912c3.616-7.152,7.344-14.288,11.168-21.376c-6.768-5.584-13.712-11.056-20.832-16.416   c9.36,0.896,18.704,2,28.032,3.296C350.372,380.116,354.404,373.108,358.532,366.116z" fill="#ffffff"/></g></g><g transform="matrix(0.09765930473804474 0 0 0.09765930473804474 62.5 150)" id="L1_3"><g><path d="M117.616,438.48c0.784-6.272,4.368-11.712,6.08-17.6c1.664-5.904,1.792-12.16,1.712-18.48   c-0.192-6.352-0.592-12.72-2.624-19.76c-0.608-0.224-1.216-0.448-1.808-0.672c-4.912,4.496-7.824,9.808-10.128,15.456   c-2.176,5.664-3.76,11.664-3.36,18.368c0.448,6.752,3.184,14.16,3.584,20.816c0.064,0.88-0.128,1.68-0.128,2.528   c-12.64-16.704-23.44-34.416-32.384-52.864c0.24-3.728,0.816-7.248,2.144-10.368c2.176-5.44,6.8-9.504,9.744-14.4   c2.88-4.944,4.32-10.56,5.568-16.336c1.12-5.824,2.016-11.728,1.456-18.672c-0.544-0.352-1.072-0.688-1.616-1.04   c-5.616,2.976-9.472,7.152-12.864,11.744c-3.248,4.672-6.032,9.712-7.072,15.888c-0.992,6.208,0.016,13.536-1.088,19.6   c-0.192,1.184-0.72,2.192-1.008,3.312c-8.128-18.432-14.448-37.504-18.944-56.96c1.024-4.192,2.4-8.128,4.72-11.216   c3.168-4.416,8.416-7.008,12.176-10.784c3.728-3.824,6.176-8.672,8.448-13.712c2.16-5.136,4.128-10.416,4.832-17.056   c-0.448-0.448-0.896-0.912-1.36-1.376c-5.888,1.408-10.352,4.352-14.432,7.808c-3.968,3.52-7.584,7.552-9.76,12.96   c-2.144,5.472-2.624,12.464-4.896,17.744c-0.576,1.408-1.456,2.528-2.224,3.792c-3.696-19.216-5.616-38.8-5.728-58.416   c1.984-4.624,4.336-8.848,7.728-11.616c3.84-3.328,9.248-4.368,13.488-6.976c4.224-2.624,7.408-6.608,10.448-10.816   c2.976-4.32,5.744-8.864,7.6-15.056c-0.336-0.544-0.688-1.104-1.024-1.648c-5.776-0.128-10.48,1.6-14.944,3.84   c-4.384,2.368-8.496,5.248-11.552,9.808c-3.024,4.64-4.784,11.072-7.92,15.424c-1.056,1.536-2.368,2.656-3.664,3.872   c0.656-19.152,3.024-38.288,7.12-57.168c0.192-0.288,0.384-0.576,0.56-0.88c3.056-4.64,6.448-8.72,10.672-10.784   c4.16-2.192,9.376-1.776,13.792-3.216c4.4-1.472,8.08-4.496,11.696-7.808c3.552-3.456,6.976-7.2,9.872-12.8   c-0.176-0.592-0.4-1.216-0.592-1.84c-5.312-1.552-9.968-0.992-14.496,0.064c-4.48,1.216-8.832,2.992-12.528,6.608   c-3.68,3.712-6.544,9.472-10.256,12.816c-1.616,1.536-3.408,2.576-5.232,3.52c4.976-18.752,11.68-37.184,20.144-55.04   c0.16,0.208,0.336,0.416,0.496,0.64c0.72-0.736,1.456-1.472,2.176-2.208c3.744-3.744,7.664-6.864,11.936-7.792   c4.208-1.088,8.88,0.576,13.168,0.272c4.304-0.368,8.288-2.432,12.256-4.88c3.968-2.576,7.872-5.488,11.712-10.384   c-0.048-0.656-0.112-1.328-0.16-2c-4.464-2.752-8.8-3.296-13.152-3.312c-4.32,0.128-8.656,0.832-12.8,3.52   c-4.128,2.768-7.952,7.696-12.048,10.064c-2,1.232-4.096,1.968-6.208,2.416c0.064-0.416,0.08-0.816,0.16-1.216   c13.712-25.424,31.12-49.488,52.288-71.376c-20.048,19.376-37.12,40.752-51.168,63.536c0.032-0.72,0.32-1.488,0.32-2.16   c0.336-4.896,0.56-9.744,0.112-14.352C85.2,60.864,82.752,52.16,76.064,44.832c-0.72,0.272-1.424,0.528-2.144,0.8   c-7.088,12.448-8.928,23.344-8.976,33.28c0.288,4.848,1.424,9.296,2.88,13.552c1.2,4.384,3.392,8.272,6.08,11.872   c0.384,0.512,0.768,1.024,1.152,1.536c-8.032,15.328-14.8,31.184-20.272,47.424c-0.032-0.16-0.016-0.352-0.064-0.512   c-0.944-5.136-2.016-10.224-3.632-14.912c-3.776-9.072-8.352-17.696-16.688-24.112c-0.64,0.4-1.28,0.816-1.904,1.216   c-3.824,14.304-2.896,26-0.352,36.32c1.52,4.992,3.792,9.392,6.368,13.52c2.336,4.336,5.52,7.92,9.152,11.136   c0.112,0.096,0.208,0.176,0.304,0.272c-4.144,16.096-7.072,32.48-8.752,48.992c-2.224-4.848-4.464-9.664-7.168-14   c-6.096-8.64-12.848-16.752-22.752-21.936c-0.528,0.528-1.056,1.072-1.584,1.6c-0.24,15.488,3.664,27.392,8.864,37.552   c2.816,4.864,6.24,8.96,9.904,12.72c3.2,3.68,7.072,6.48,11.168,8.944C37.216,266.4,38,282.752,39.984,299.008   c-3.296-4.208-6.592-8.448-10.208-12.128c-8.4-7.696-17.264-14.768-28.576-18.384c-0.4,0.64-0.8,1.28-1.2,1.92   c3.632,15.92,10.592,27.392,18.496,36.784c4.112,4.432,8.672,7.984,13.376,11.104c3.776,2.8,7.984,4.608,12.256,6.256   c3.216,15.872,7.6,31.584,13.184,46.992c-4.256-3.392-8.448-6.864-12.848-9.728c-10.608-6.224-21.488-11.776-33.968-13.44   c-0.256,0.72-0.512,1.44-0.752,2.16c7.712,15.536,17.792,25.888,28.368,33.872c5.376,3.712,10.992,6.4,16.688,8.656   c4.128,1.872,8.448,2.688,12.768,3.504c6.784,14.816,14.752,29.264,23.872,43.2c-5.04-2.416-10.064-4.944-15.088-6.864   c-12.656-4.16-25.36-7.728-38.736-7.152c-0.08,0.768-0.16,1.552-0.24,2.32c11.952,14.288,25.12,22.768,38.256,28.72   c6.592,2.672,13.184,4.272,19.728,5.36c4.304,0.928,8.528,0.8,12.752,0.832c7.072,9.008,14.704,17.76,22.864,26.192   c4.304-4.304,8.592-8.608,12.896-12.896c-9.36-9.056-18.064-18.544-26.096-28.432C117.296,444.608,117.168,441.472,117.616,438.48z   " fill="#4b9fd8"/><path d="M467.52,361.792c-4.4,2.864-8.608,6.336-12.848,9.728c5.584-15.408,9.968-31.12,13.184-46.992   c4.272-1.632,8.48-3.44,12.256-6.256c4.704-3.12,9.264-6.672,13.376-11.104c7.904-9.392,14.88-20.864,18.496-36.784   c-0.4-0.64-0.8-1.28-1.2-1.92c-11.296,3.616-20.176,10.688-28.576,18.384c-3.616,3.68-6.912,7.92-10.208,12.128   c1.984-16.256,2.768-32.608,2.336-48.912c4.096-2.464,7.968-5.264,11.168-8.944c3.648-3.76,7.088-7.856,9.904-12.72   c5.2-10.16,9.104-22.048,8.864-37.552c-0.528-0.528-1.056-1.072-1.584-1.6c-9.904,5.184-16.656,13.296-22.752,21.936   c-2.704,4.336-4.944,9.152-7.168,14c-1.68-16.512-4.592-32.896-8.752-48.992c0.112-0.096,0.208-0.176,0.32-0.272   c3.632-3.2,6.816-6.8,9.152-11.136c2.576-4.144,4.848-8.544,6.368-13.52c2.544-10.32,3.456-22.016-0.352-36.32   c-0.64-0.416-1.264-0.816-1.904-1.216c-8.336,6.432-12.928,15.04-16.688,24.128c-1.616,4.688-2.688,9.776-3.648,14.912   c-0.032,0.16-0.016,0.352-0.048,0.512c-5.472-16.24-12.24-32.096-20.288-47.424c0.384-0.512,0.768-1.024,1.152-1.536   c2.688-3.6,4.896-7.472,6.08-11.872c1.472-4.256,2.592-8.704,2.88-13.552c-0.032-9.936-1.872-20.832-8.96-33.28   c-0.72-0.272-1.44-0.528-2.16-0.8c-6.688,7.312-9.136,16.032-10.592,25.008c-0.448,4.608-0.224,9.456,0.112,14.352   c0,0.656,0.288,1.44,0.336,2.128c-14.064-22.784-31.12-44.144-51.168-63.536c21.168,21.904,38.576,45.952,52.288,71.376   c0.064,0.416,0.096,0.8,0.16,1.216c-2.128-0.448-4.208-1.184-6.224-2.416c-4.096-2.352-7.904-7.296-12.048-10.064   c-4.144-2.688-8.464-3.392-12.8-3.52c-4.368,0.08-8.704,0.624-13.168,3.376c-0.048,0.672-0.112,1.344-0.16,2.016   c3.84,4.896,7.744,7.808,11.712,10.384c3.968,2.432,7.952,4.512,12.256,4.88c4.288,0.304,8.944-1.36,13.184-0.288   c4.272,0.944,8.176,4.064,11.936,7.792c0.736,0.736,1.456,1.456,2.176,2.208c0.16-0.208,0.32-0.432,0.496-0.64   c8.464,17.856,15.168,36.288,20.144,55.04c-1.84-0.96-3.632-1.984-5.232-3.52c-3.712-3.344-6.592-9.104-10.272-12.816   c-3.68-3.632-8.032-5.408-12.528-6.608c-4.528-1.072-9.184-1.616-14.48-0.064c-0.208,0.624-0.416,1.248-0.624,1.872   c2.896,5.6,6.32,9.344,9.872,12.8c3.616,3.328,7.296,6.336,11.696,7.808c4.416,1.44,9.632,1.024,13.792,3.216   c4.224,2.064,7.616,6.144,10.672,10.784c0.192,0.288,0.384,0.576,0.576,0.88c4.096,18.88,6.464,38.032,7.12,57.168   c-1.296-1.232-2.608-2.336-3.664-3.872c-3.136-4.352-4.896-10.784-7.92-15.424c-3.056-4.576-7.168-7.44-11.552-9.808   c-4.448-2.24-9.168-3.968-14.944-3.84c-0.336,0.544-0.688,1.104-1.024,1.648c1.856,6.192,4.64,10.72,7.6,15.056   c3.056,4.192,6.24,8.176,10.448,10.816c4.256,2.592,9.664,3.648,13.488,6.976c3.376,2.768,5.744,6.976,7.728,11.616   c-0.112,19.616-2.032,39.2-5.712,58.448c-0.768-1.264-1.632-2.368-2.224-3.792c-2.272-5.28-2.752-12.256-4.896-17.744   c-2.192-5.408-5.792-9.44-9.76-12.96c-4.08-3.456-8.544-6.4-14.432-7.808c-0.448,0.464-0.896,0.912-1.36,1.376   c0.704,6.64,2.672,11.92,4.832,17.056c2.272,5.04,4.72,9.888,8.448,13.712c3.76,3.76,9.008,6.352,12.176,10.784   c2.32,3.072,3.696,7.008,4.72,11.216c-4.496,19.456-10.816,38.544-18.944,56.96c-0.288-1.12-0.816-2.128-1.008-3.312   c-1.104-6.064-0.112-13.392-1.088-19.6c-1.04-6.16-3.824-11.216-7.072-15.888c-3.376-4.608-7.232-8.784-12.864-11.744   c-0.544,0.352-1.072,0.688-1.616,1.04c-0.56,6.944,0.32,12.848,1.456,18.672c1.248,5.76,2.672,11.392,5.568,16.336   c2.928,4.896,7.568,8.96,9.744,14.4c1.328,3.12,1.904,6.656,2.144,10.368c-8.944,18.432-19.744,36.16-32.384,52.864   c0-0.848-0.192-1.664-0.128-2.528c0.4-6.672,3.136-14.08,3.584-20.816c0.4-6.704-1.2-12.688-3.36-18.368   c-2.304-5.648-5.216-10.96-10.128-15.456c-0.608,0.224-1.216,0.448-1.808,0.672c-2.032,7.056-2.432,13.408-2.624,19.76   c-0.08,6.32,0.048,12.576,1.712,18.48c1.728,5.872,5.296,11.328,6.08,17.6c0.448,2.976,0.32,6.112-0.112,9.344   c-8.032,9.888-16.736,19.376-26.096,28.432c4.304,4.304,8.608,8.592,12.896,12.896c8.16-8.432,15.776-17.184,22.848-26.192   c4.24-0.032,8.448,0.096,12.752-0.832c6.544-1.104,13.136-2.688,19.728-5.36c13.136-5.968,26.304-14.432,38.256-28.72   c-0.08-0.768-0.16-1.552-0.24-2.32c-13.376-0.576-26.08,2.992-38.736,7.152c-5.024,1.92-10.048,4.464-15.088,6.864   c9.12-13.936,17.072-28.384,23.872-43.2c4.32-0.816,8.64-1.632,12.768-3.504c5.68-2.24,11.312-4.944,16.688-8.656   c10.576-7.984,20.656-18.336,28.368-33.872c-0.24-0.72-0.496-1.44-0.752-2.16C489.008,350.016,478.128,355.568,467.52,361.792z" fill="#4b9fd8"/></g><path d="M161.36,325.936h189.248c31.904-26.96,52.256-67.2,52.256-112.16  c0-80.992-65.888-146.88-146.88-146.88s-146.88,65.888-146.88,146.88C109.104,258.72,129.456,298.96,161.36,325.936z" fill="#ffd684"/><path d="M195.616,325.936h120.752c39.872-21.552,67.04-63.728,67.04-112.16  c0-70.256-57.152-127.408-127.408-127.408S128.592,143.52,128.592,213.776C128.576,262.192,155.728,304.384,195.616,325.936z" fill="#ffcc5b"/><path d="M237.52,228.72h82.656c6.384,0,11.696,5.296,11.696,11.696l-0.144,0.816v0.144  c0.144,6.8-5.44,12.368-12.24,12.368h-57.232c-7.616,0-14.272,5.568-14.816,13.184c-0.272,8.016,5.984,14.672,14,14.672h60.64  c6.8,0,11.696,5.584,11.696,12.368c0,0,0,0,0,0.144s0,0.144,0,0.144c0,6.656-4.896,12.368-11.696,12.368h-48.8  c-7.472,0-14.144,5.568-14.544,13.056c-0.112,2.256,0.384,4.336,1.216,6.256h56.032c40.048-21.488,67.424-63.616,67.424-112.16  c0-55.984-36.336-103.536-86.624-120.592h-33.44c-7.616,0-14.272,5.568-14.688,13.056c-0.416,8.016,5.984,14.688,13.872,14.688  h49.216c8.016,0,14.416,6.672,14,14.688c-0.4,7.456-7.2,13.168-14.672,13.168h-46.496c-7.472,0.144-13.456,6.256-13.456,13.872  s6.256,13.872,13.872,13.872h59.824c6.528,0,11.824,5.296,11.696,11.696v1.088c0.416,6.256-4.624,11.696-11.008,11.696h-87.152  c-7.616,0-14.272,5.568-14.816,13.056C223.248,222.064,229.504,228.72,237.52,228.72z" fill="#f3ba51"/><path d="M336.064,174.016c4.752-3.44,2.304-10.96-3.552-10.96h-49.648c-2.624,0-4.944-1.68-5.76-4.176  l-15.36-47.216c-1.808-5.584-9.712-5.584-11.52,0l-15.344,47.232c-0.816,2.496-3.136,4.176-5.76,4.176h-49.648  c-5.872,0-8.304,7.504-3.552,10.96l40.176,29.184c2.128,1.552,3.008,4.272,2.192,6.768l-15.344,47.232  c-1.808,5.584,4.576,10.208,9.312,6.768l40.176-29.184c2.128-1.536,4.992-1.536,7.12,0l40.176,29.184  c4.752,3.44,11.136-1.184,9.312-6.768l-15.344-47.232c-0.816-2.496,0.08-5.232,2.192-6.768L336.064,174.016z" fill="#ffffff"/><g><path d="M214.16,370.784c-33.632,11.328-71.424,11.328-105.056,0c6.528-8.864,13.216-18.16,20-27.872   c-6.784-12.416-13.472-25.248-20-38.512c33.632,11.328,71.424,11.328,105.056,0C214.16,326.528,214.16,348.656,214.16,370.784z" fill="#e95454"/><path d="M297.808,370.784c33.632,11.328,71.424,11.328,105.056,0c-6.528-8.864-13.216-18.16-20-27.872   c6.784-12.416,13.472-25.248,20-38.512c-33.632,11.328-71.424,11.328-105.056,0C297.808,326.528,297.808,348.656,297.808,370.784z" fill="#e95454"/></g><g><path d="M161.632,358.48 214.16,370.784 214.16,346.128 161.632,346.96z" fill="#cd494c"/><path d="M297.808,370.784 350.336,358.48 338.08,333.904 297.808,346.128z" fill="#cd494c"/></g><path d="M350.336,358.48c-60.416-20.352-128.288-20.352-188.688,0c0-22.128,0-44.256,0-66.368  c60.416-20.352,128.288-20.352,188.688,0C350.336,314.24,350.336,336.368,350.336,358.48z" fill="#ed6362"/></g></defs><g fi:class="KUsePattern"><pattern id="pattern_L1_0" width="350" height="350" patternUnits="userSpaceOnUse"><use xlink:href="#L1_0" x="-350" y="-350"/><use xlink:href="#L1_0" x="0" y="-350"/><use xlink:href="#L1_0" x="350" y="-350"/><use xlink:href="#L1_0" x="-350" y="0"/><use xlink:href="#L1_0" x="0" y="0"/><use xlink:href="#L1_0" x="350" y="0"/><use xlink:href="#L1_0" x="-350" y="350"/><use xlink:href="#L1_0" x="0" y="350"/><use xlink:href="#L1_0" x="350" y="350"/></pattern><rect x="0" y="0" width="100%" height="100%" fill="url(#pattern_L1_0)"/></g><g fi:class="KUsePattern"><pattern id="pattern_L1_1" width="350" height="350" patternUnits="userSpaceOnUse"><use xlink:href="#L1_1" x="-350" y="-350"/><use xlink:href="#L1_1" x="0" y="-350"/><use xlink:href="#L1_1" x="350" y="-350"/><use xlink:href="#L1_1" x="-350" y="0"/><use xlink:href="#L1_1" x="0" y="0"/><use xlink:href="#L1_1" x="350" y="0"/><use xlink:href="#L1_1" x="-350" y="350"/><use xlink:href="#L1_1" x="0" y="350"/><use xlink:href="#L1_1" x="350" y="350"/></pattern><rect x="0" y="0" width="100%" height="100%" fill="url(#pattern_L1_1)"/></g><g fi:class="KUsePattern"><pattern id="pattern_L1_2" width="350" height="350" patternUnits="userSpaceOnUse"><use xlink:href="#L1_2" x="-350" y="-350"/><use xlink:href="#L1_2" x="0" y="-350"/><use xlink:href="#L1_2" x="350" y="-350"/><use xlink:href="#L1_2" x="-350" y="0"/><use xlink:href="#L1_2" x="0" y="0"/><use xlink:href="#L1_2" x="350" y="0"/><use xlink:href="#L1_2" x="-350" y="350"/><use xlink:href="#L1_2" x="0" y="350"/><use xlink:href="#L1_2" x="350" y="350"/></pattern><rect x="0" y="0" width="100%" height="100%" fill="url(#pattern_L1_2)"/></g><g fi:class="KUsePattern"><pattern id="pattern_L1_3" width="350" height="350" patternUnits="userSpaceOnUse"><use xlink:href="#L1_3" x="-350" y="-350"/><use xlink:href="#L1_3" x="0" y="-350"/><use xlink:href="#L1_3" x="350" y="-350"/><use xlink:href="#L1_3" x="-350" y="0"/><use xlink:href="#L1_3" x="0" y="0"/><use xlink:href="#L1_3" x="350" y="0"/><use xlink:href="#L1_3" x="-350" y="350"/><use xlink:href="#L1_3" x="0" y="350"/><use xlink:href="#L1_3" x="350" y="350"/></pattern><rect x="0" y="0" width="100%" height="100%" fill="url(#pattern_L1_3)"/></g></svg>