<?xml version="1.0" encoding="UTF-8" standalone="no"?>
<svg
   xmlns:osb="http://www.openswatchbook.org/uri/2009/osb"
   xmlns:dc="http://purl.org/dc/elements/1.1/"
   xmlns:cc="http://creativecommons.org/ns#"
   xmlns:rdf="http://www.w3.org/1999/02/22-rdf-syntax-ns#"
   xmlns:svg="http://www.w3.org/2000/svg"
   xmlns="http://www.w3.org/2000/svg"
   xmlns:xlink="http://www.w3.org/1999/xlink"
   xmlns:sodipodi="http://sodipodi.sourceforge.net/DTD/sodipodi-0.dtd"
   xmlns:inkscape="http://www.inkscape.org/namespaces/inkscape"
   version="1.1"
   x="0px"
   y="0px"
   viewBox="0 0 1024 1024"
   xml:space="preserve"
   id="svg3928"
   sodipodi:docname="path-of-child-logo-only.svg"
   width="1024"
   height="1024"
   inkscape:version="0.92.3 (3ce5693, 2018-03-11)"><metadata
     id="metadata3934"><rdf:RDF><cc:Work
         rdf:about=""><dc:format>image/svg+xml</dc:format><dc:type
           rdf:resource="http://purl.org/dc/dcmitype/StillImage" /><dc:title /></cc:Work></rdf:RDF></metadata><defs
     id="defs3932"><linearGradient
       inkscape:collect="always"
       id="linearGradient6245"><stop
         style="stop-color:#000000;stop-opacity:1;"
         offset="0"
         id="stop6241" /><stop
         style="stop-color:#000000;stop-opacity:0;"
         offset="1"
         id="stop6243" /></linearGradient><linearGradient
       id="linearGradient6237"
       osb:paint="solid"><stop
         style="stop-color:#007f00;stop-opacity:1;"
         offset="0"
         id="stop6235" /></linearGradient><linearGradient
       inkscape:collect="always"
       xlink:href="#linearGradient6237"
       id="linearGradient6239"
       x1="431.27808"
       y1="364.13226"
       x2="469.35306"
       y2="364.13226"
       gradientUnits="userSpaceOnUse" /><linearGradient
       inkscape:collect="always"
       xlink:href="#linearGradient6245"
       id="linearGradient6247"
       x1="431.27808"
       y1="364.13226"
       x2="469.35306"
       y2="364.13226"
       gradientUnits="userSpaceOnUse" /></defs><sodipodi:namedview
     pagecolor="#ffffff"
     bordercolor="#666666"
     borderopacity="1"
     objecttolerance="10"
     gridtolerance="10"
     guidetolerance="10"
     inkscape:pageopacity="0"
     inkscape:pageshadow="2"
     inkscape:window-width="2192"
     inkscape:window-height="1090"
     id="namedview3930"
     showgrid="false"
     units="px"
     inkscape:zoom="0.5"
     inkscape:cx="531.9252"
     inkscape:cy="556.30786"
     inkscape:window-x="0"
     inkscape:window-y="34"
     inkscape:window-maximized="1"
     inkscape:current-layer="g3920" /><g
     transform="matrix(15.385114,0,0,16.700813,-6649.7684,-5203.8217)"
     id="g3922"><g
       id="g3920"><flowRoot
         xml:space="preserve"
         id="flowRoot4627"
         style="font-style:normal;font-variant:normal;font-weight:normal;font-stretch:normal;font-size:40px;line-height:1.25;font-family:Signika;-inkscape-font-specification:Signika;letter-spacing:0px;word-spacing:0px;fill:#000000;fill-opacity:1;stroke:none"
         transform="matrix(0.06499789,0,0,0.05987732,432.22094,311.59092)"><flowRegion
           id="flowRegion4629"><rect
             id="rect4631"
             width="10"
             height="68"
             x="813"
             y="573" /></flowRegion><flowPara
           id="flowPara4633" /></flowRoot><path
         d="m 484.99397,357.2969 c -5.10865,6.12337 -14.18645,9.6871 -22.62693,8.70643 -4.23589,-0.39789 -8.23508,-1.95775 -11.56435,-4.28057 -3.29866,-2.26405 -5.97962,-5.83897 -6.93541,-9.79061 -0.96331,-3.97801 -0.42624,-8.3482 1.52939,-12.2141 2.01235,-3.84143 5.28351,-7.16186 9.31253,-9.16213 3.98669,-2.05594 8.55679,-2.76914 12.6814,-2.14338 4.12411,0.63643 7.79079,2.62029 10.07826,5.48841 -6.14893,-4.34 -14.84913,-4.19376 -20.95575,-0.32816 -6.19916,3.76923 -9.44916,10.93282 -7.79974,16.99795 0.34718,1.51939 0.99604,2.9502 1.86766,4.2474 0.85887,1.29104 2.03438,2.38504 3.34808,3.45917 2.5993,2.09741 5.84596,3.48333 9.34458,4.20996 7.03989,1.40374 15.18287,-0.41375 21.72028,-5.19037 z"
         id="path3914-3"
         inkscape:connector-curvature="0"
         style="fill:#9cbbff;fill-opacity:1;stroke-width:1.96349835" /><path
         d="m 446.00449,327.19924 c 5.10867,-6.12337 14.18645,-9.6871 22.62401,-8.70631 4.23731,0.39914 8.23372,1.95645 11.5674,4.27777 3.30004,2.26533 5.981,5.84025 6.93679,9.79189 0.96331,3.97801 0.42484,8.34693 -1.52799,12.2154 -2.00935,3.83864 -5.28352,7.16184 -9.31254,9.16211 -3.98369,2.05315 -8.55379,2.76638 -12.67988,2.142 -4.12412,-0.63645 -7.79219,-2.62158 -10.07829,-5.48843 6.14895,4.34 14.84776,4.19248 20.96017,0.32667 6.19476,-3.76774 9.44197,-10.93388 7.79393,-16.99771 -0.34717,-1.51941 -0.99441,-2.95426 -1.86764,-4.24742 -0.86027,-1.29232 -2.03438,-2.38504 -3.35108,-3.45639 -2.5963,-2.10019 -5.84599,-3.48332 -9.34461,-4.20997 -7.0444,-1.39956 -15.18438,0.41516 -21.72027,5.19039 z"
         id="path3916-5"
         inkscape:connector-curvature="0"
         style="fill:#ffabff;fill-opacity:1;stroke-width:1.96349835" /></g></g></svg>