<?xml version="1.0" encoding="iso-8859-1"?>
<!-- Generator: Adobe Illustrator 19.0.0, SVG Export Plug-In . SVG Version: 6.00 Build 0)  -->
<svg version="1.1" id="Capa_1" xmlns="http://www.w3.org/2000/svg" xmlns:xlink="http://www.w3.org/1999/xlink" x="0px" y="0px"
	 viewBox="0 0 512 512" style="enable-background:new 0 0 512 512;" xml:space="preserve">
<path style="fill:#6C342A;" d="M476.69,17.769c-19.5,0-35.31,15.704-35.31,35.081H39.918C17.867,52.85,0,70.726,0,92.768V379.47
	v26.483v39.724v4.414c0,21.848,16.825,44.138,44.138,44.138c7.062,0,13.789-1.668,19.447-4.52s10.24-6.894,12.994-11.652
	c1.836-3.16,2.869-6.647,2.869-10.311c0-1.571,0-7.194,0-8.828v-52.966h380.778c28.593,0,51.774-23.181,51.774-51.774v-1.192V52.85
	C512,33.473,496.19,17.769,476.69,17.769z"/>
<path style="fill:#BF5A45;" d="M474.333,330.115c-13.321,0-25.194,6.118-32.953,15.669V52.85H39.918C17.867,52.85,0,70.726,0,92.768
	V379.47v26.483v39.724v4.414c0,21.848,16.825,44.138,44.138,44.138c18.82,0,35.31-11.847,35.31-26.483c0-1.571,0-7.194,0-8.828
	v-52.966h380.778c28.593,0,51.774-23.181,51.774-51.774v-1.192C504.964,339.42,490.761,330.115,474.333,330.115z"/>
<g>
	<path style="fill:#6C342A;" d="M441.379,345.784c7.768-9.551,19.641-15.669,32.953-15.669c16.419,0,30.632,9.295,37.667,22.872
		V52.85c0-19.377-15.81-35.081-35.31-35.081l0,0c-19.5,0-35.31,15.704-35.31,35.081V345.784z"/>
	<path style="fill:#6C342A;" d="M45.4,441.264c18.82,0,34.048,8.828,34.048,26.483c0,14.636-16.49,26.483-35.31,26.483
		C16.825,494.229,0,471.939,0,450.091s22.343-44.138,49.655-44.138h29.793"/>
</g>
<g>
	<path style="fill:#FFFFFF;" d="M289.192,203.21c-0.715,0-1.439-0.088-2.163-0.265c-4.732-1.192-7.601-5.985-6.409-10.708
		c1.66-6.638,4.175-12.879,7.468-18.573c2.436-4.228,7.83-5.676,12.059-3.231c4.22,2.436,5.667,7.848,3.222,12.058
		c-2.472,4.273-4.361,9.004-5.632,14.036C296.739,200.535,293.138,203.21,289.192,203.21z"/>
	<path style="fill:#FFFFFF;" d="M243.288,362.054c-6.206,0-12.5-0.742-18.714-2.207c-4.749-1.121-7.689-5.879-6.568-10.62
		c1.112-4.74,5.888-7.662,10.62-6.568c9.463,2.242,18.944,2.322,28.231,0.221c4.732-1.086,9.481,1.916,10.549,6.682
		c1.068,4.749-1.924,9.472-6.674,10.54C254.967,361.4,249.106,362.054,243.288,362.054z M294.321,341.733
		c-2.269,0-4.546-0.874-6.268-2.613c-3.434-3.469-3.407-9.048,0.062-12.482c6.488-6.435,10.266-14.133,11.555-23.517
		c0.662-4.829,5.146-8.183,9.94-7.548c4.829,0.662,8.21,5.111,7.548,9.949c-1.801,13.188-7.389,24.514-16.622,33.651
		C298.814,340.885,296.572,341.733,294.321,341.733z M303.025,273.275c-3.646,0-7.062-2.278-8.333-5.914
		c-2.004-5.729-4.546-11.67-7.556-17.673c-2.013-3.99-3.708-8.218-5.058-12.57c-1.448-4.652,1.156-9.596,5.817-11.043
		c4.661-1.439,9.604,1.156,11.043,5.817c1.059,3.416,2.392,6.735,3.972,9.852c3.354,6.691,6.206,13.347,8.457,19.783
		c1.615,4.599-0.812,9.64-5.42,11.246C304.967,273.125,303.987,273.275,303.025,273.275z"/>
	<path style="fill:#FFFFFF;" d="M190.349,342.006c-1.907,0-3.822-0.609-5.438-1.88c-8.845-6.93-13.992-12.959-14.204-13.215
		c-3.151-3.716-2.692-9.287,1.024-12.438c3.725-3.134,9.295-2.701,12.438,1.024c0.026,0.035,4.29,4.979,11.626,10.734
		c3.84,3.01,4.511,8.554,1.501,12.394C195.558,340.85,192.962,342.006,190.349,342.006z"/>
</g>
<g>
	<path style="fill:#F7E6A1;" d="M344.276,150.184c-2.26,0-4.52-0.865-6.241-2.586l-44.138-44.138c-3.452-3.452-3.452-9.031,0-12.482
		c3.452-3.452,9.031-3.452,12.482,0l44.138,44.138c3.452,3.452,3.452,9.031,0,12.482
		C348.796,149.318,346.536,150.184,344.276,150.184z"/>
	<path style="fill:#F7E6A1;" d="M300.138,150.184c-2.26,0-4.52-0.865-6.241-2.586c-3.452-3.452-3.452-9.031,0-12.482l44.138-44.138
		c3.452-3.452,9.031-3.452,12.482,0s3.452,9.031,0,12.482l-44.138,44.138C304.658,149.318,302.398,150.184,300.138,150.184z"/>
</g>
<path style="fill:#EBBA16;" d="M185.379,233.162c0,31.206-52.966,84.745-52.966,84.745s-52.966-53.539-52.966-84.745
	s23.711-56.497,52.966-56.497S185.379,201.957,185.379,233.162z"/>
<path style="fill:#FFFFFF;" d="M141.444,247.286h-18.07c-4.758,0-8.616-3.858-8.616-8.625v-18.07c0-4.758,3.858-8.616,8.625-8.616
	h18.07c4.758,0,8.616,3.858,8.616,8.625v18.07C150.069,243.429,146.211,247.286,141.444,247.286z"/>
<g>
</g>
<g>
</g>
<g>
</g>
<g>
</g>
<g>
</g>
<g>
</g>
<g>
</g>
<g>
</g>
<g>
</g>
<g>
</g>
<g>
</g>
<g>
</g>
<g>
</g>
<g>
</g>
<g>
</g>
</svg>
