<svg id="Layer_35" enable-background="new 0 0 64 64" height="512" viewBox="0 0 64 64" width="512" xmlns="http://www.w3.org/2000/svg"><g><g><g><path d="m39 33.2 3.41.23c-.63 1.47-1.76 3.18-3.41 4.82z" fill="#e6e9ed"/></g><g><path d="m51 41.55c0 1.6-.47 3.16-1.36 4.48l-.64.97h-6v-4.37c2.45-2.46 4.06-5.09 4.99-7.35.3.23.57.48.83.76 1.36 1.44 2.18 3.38 2.18 5.51z" fill="#aab2bd"/></g><g><path d="m49 47-2 15h-6l2-15z" fill="#f0d0b4"/></g><g><path d="m47.99 35.27v.01c-.93 2.26-2.54 4.89-4.99 7.35-1.38 1.38-3.04 2.71-5 3.89v-.52h-4v2.5c-1.24.5-2.57.95-4 1.31v-1.81h-4v2.6c-1.41.19-2.9.32-4.47.38l-.53-3.98v-2c7.08 0 12.38-2.23 16-5 .74-.57 1.4-1.15 2-1.75 1.65-1.64 2.78-3.35 3.41-4.82l1.05.07c1.72.11 3.28.76 4.53 1.77z" fill="#fcd770"/></g><g><path d="m38 46.52-12 4.08c-1.41.19-2.9.32-4.47.38l1.47 11.02h18l2-15v-4.37c-1.38 1.38-3.04 2.71-5 3.89z" fill="#e6e9ed"/></g><g><path d="m42.96 14.4c0 .4-.05.79-.15 1.18l-.85 3.19c-.53-.48-1.23-.77-2-.77h-1c-2.5 0-5.25-1-7.38-2-2.12-1-3.62-2-3.62-2-1.42.95-2.41 2.38-2.81 4h-1.19c-.77 0-1.46.29-1.99.77l-.01-.01s-.25-.69-.5-1.63c-.25-.93-.5-2.13-.5-3.13 0-1.59 1.23-2.89 2.79-2.99l.25.99h16l.46-1.84c.76.42 1.39 1.04 1.82 1.77.44.73.68 1.58.68 2.47z" fill="#b27946"/></g><g><path d="m41.96 18.77c.62.54 1 1.34 1 2.23 0 .83-.34 1.58-.88 2.12s-1.29.88-2.12.88h-1.07-.01c.06-.32.08-.66.08-1v-5h1c.77 0 1.47.29 2 .77z" fill="#f0d0b4"/></g><g><path d="m42 4-1.54 6.16-.46 1.84h-16l-.25-.99-1.75-7.01 4 2 3-3 3 3 2.99-3 3.01 3z" fill="#fcd770"/></g><g><path d="m39 33.2v5.05c-.6.6-1.26 1.18-2 1.75h-12v-6.8l3-.2.05.15c.57 1.7 2.16 2.85 3.95 2.85.9 0 1.74-.29 2.43-.79s1.23-1.21 1.52-2.06l.05-.15z" fill="#aab2bd"/></g><g><path d="m35.07 29.27c-.94.47-1.99.73-3.11.73-1.09 0-2.12-.25-3.04-.7-2.06-.98-3.55-2.95-3.88-5.3-.06-.32-.08-.66-.08-1v-3.39c0-.55.07-1.09.19-1.61.4-1.62 1.39-3.05 2.81-4 0 0 1.5 1 3.62 2 2.13 1 4.88 2 7.38 2v5c0 .34-.02.68-.08 1-.32 2.32-1.79 4.27-3.81 5.27z" fill="#f0d0b4"/></g><g><path d="m38 46.52v3.48l-2 2-2-2v-1.5-2.5h4z" fill="#aab2bd"/></g><g><circle cx="36" cy="54" fill="#ff826e" r="2"/></g><g><path d="m25 40h12c-3.62 2.77-8.92 5-16 5v-11.53l4-.27z" fill="#e6e9ed"/></g><g><path d="m35.07 29.27.93 3.73-.05.15c-.29.85-.83 1.56-1.52 2.06s-1.53.79-2.43.79c-1.79 0-3.38-1.15-3.95-2.85l-.05-.15.92-3.7c.92.45 1.95.7 3.04.7 1.12 0 2.17-.26 3.11-.73z" fill="#f0d0b4"/></g><g><path d="m30 49.81v2.19l-2 2-2-2v-1.4-2.6h4z" fill="#aab2bd"/></g><g><circle cx="28" cy="56" fill="#ff826e" r="2"/></g><g><path d="m23.96 18h1.19c-.12.52-.19 1.06-.19 1.61v3.39c0 .34.02.68.08 1h-.01-1.07c-.83 0-1.58-.34-2.12-.88s-.88-1.29-.88-2.12c0-.89.39-1.7 1.01-2.23.53-.48 1.22-.77 1.99-.77z" fill="#f0d0b4"/></g><g><path d="m21.53 50.98 1.47 11.02h-6l-2-15h6z" fill="#f0d0b4"/></g><g><path d="m21 45v2h-6l-.64-.97c-.89-1.32-1.36-2.88-1.36-4.48 0-2.13.82-4.07 2.18-5.51 1.36-1.45 3.24-2.4 5.36-2.54l.46-.03z" fill="#aab2bd"/></g></g><g><path d="m52 41.555c0-4.761-3.721-8.738-8.472-9.056l-6.735-.448-.573-2.292c1.697-1.074 2.959-2.765 3.475-4.759h.264c2.205 0 3.999-1.794 3.999-4 0-.947-.344-1.806-.895-2.491l.721-2.685c.116-.462.175-.94.175-1.421 0-1.862-.885-3.599-2.354-4.695l1.896-7.575-5.301 2.651-3.208-3.198-2.993 3-3.004-3.001-3.19 3.198-5.299-2.649 2.034 8.145c-1.508.579-2.581 2.031-2.581 3.721 0 1.608.565 3.586.871 4.538-.537.681-.871 1.529-.871 2.462 0 2.206 1.794 4 4 4h.263c.523 2.021 1.815 3.731 3.548 4.802l-.562 2.248-6.735.448c-4.752.318-8.473 4.296-8.473 9.057 0 1.799.527 3.539 1.524 5.034l.515.773 2.085 15.638h31.752l2.085-15.638.515-.773c.997-1.495 1.524-3.235 1.524-5.034zm-5.253-5.941c-1.115 2.427-3.485 6.237-8.218 9.386h-5.529v2.803c-.652.246-1.318.471-2 .676v-1.479h-6v2.703c-.849.099-1.717.173-2.601.22l-.399-2.989v-.97c12.251-.367 18.89-7.279 21.02-11.493l.375.025c1.234.081 2.374.486 3.352 1.118zm-6.622 25.386h-16.25l-1.212-9.09c.792-.045 1.57-.11 2.336-.196v.699l1.201 1.201c-.724.549-1.2 1.409-1.2 2.386 0 1.654 1.346 3 3 3s3-1.346 3-3c0-.977-.476-1.837-1.201-2.385l1.201-1.201v-1.853c.679-.191 1.345-.4 2-.63v.483l1.201 1.201c-.725.548-1.201 1.408-1.201 2.385 0 1.654 1.346 3 3 3s3-1.346 3-3c0-.977-.476-1.837-1.201-2.385l1.201-1.201v-3.346c1.107-.695 2.106-1.424 3-2.171v2.037zm-12.778-26.954c.845 1.786 2.638 2.954 4.653 2.954s3.808-1.169 4.654-2.954l1.346.089v3.65c-.428.409-.883.816-1.386 1.214h-10.614v-4.865zm12.653.223.819.055c-.236.395-.504.803-.819 1.227zm-6.432 6.731c-2.975 1.624-6.806 2.813-11.568 2.964v-9.562l2-.133v6.731zm-4.568 10.586-1 1-1-1v-2.586h2zm0 4.414c0 .552-.448 1-1 1s-1-.448-1-1c0-.43.275-.789.656-.93l.344.344.344-.344c.381.141.656.5.656.93zm8-6.414-1 1-1-1v-2.586h2zm0 4.414c0 .552-.448 1-1 1s-1-.448-1-1c0-.43.275-.789.656-.93l.344.344.344-.344c.381.141.656.5.656.93zm2.959-31-.001-4h.001c1.103 0 1.999.897 1.999 2s-.896 2-1.999 2zm1.999-8.598c0 .317-.038.632-.11.918l-.52 1.936c-.429-.157-.886-.256-1.369-.256h-.001-1c-4.633 0-10.388-3.794-10.445-3.832l-.253-.168h12.52l.269-1.075c.574.684.909 1.555.909 2.477zm-15.757-7.185 2.796-2.802 3.004 2.999 2.995-3 2.812 2.802 2.697-1.349-1.285 5.133h-14.439l-1.281-5.134zm-4.243 13.783c0-1.103.897-2 2-2h.037c-.016.201-.037.401-.037.605v3.395c-1.103 0-2-.897-2-2zm2.46-4h-.46c-.503 0-.979.103-1.422.273-.265-.921-.578-2.228-.578-3.273 0-.761.434-1.426 1.07-1.764l.191.764h4.437l-.252.168c-1.406.937-2.434 2.289-2.986 3.832zm1.54 6v-3.395c0-1.71.755-3.31 2.047-4.393 1.563.955 5.874 3.379 9.953 3.741v4.047c0 3.309-2.691 6-5.999 6h-.001c-3.309 0-6-2.691-6-6zm6.001 8c.842 0 1.654-.133 2.417-.375l.58 2.318c-.462 1.233-1.631 2.057-2.956 2.057-1.324 0-2.494-.824-2.955-2.058l.573-2.293c.741.227 1.527.351 2.341.351zm-11.959 3.565v11.435h-4.465l-.347-.521c-.777-1.166-1.188-2.522-1.188-3.924 0-3.507 2.591-6.465 6-6.99zm-3.858 13.435h3.991l1.726 13h-3.983zm26 13 1.733-13h3.982l-1.734 13zm6.67-15.521-.347.521h-4.471l.006-2.96c2.116-2.185 3.47-4.36 4.308-6.055 1.053 1.238 1.692 2.835 1.692 4.57 0 1.402-.411 2.758-1.188 3.924z"/><path d="m35.789 24.658.105-.211-1.789-.895-.105.212c-.381.762-1.147 1.236-2 1.236s-1.619-.474-2-1.236l-.105-.211-1.789.895.105.211c.722 1.444 2.174 2.341 3.789 2.341s3.067-.897 3.789-2.342z"/></g></g></svg>